<?xml version="1.0" encoding="us-ascii" standalone="no"?><svg xmlns="http://www.w3.org/2000/svg" xmlns:xlink="http://www.w3.org/1999/xlink" contentStyleType="text/css" height="424px" preserveAspectRatio="none" style="width:909px;height:424px;background:#FFFFFF;" version="1.1" viewBox="0 0 909 424" width="909px" zoomAndPan="magnify"><defs/><g><!--cluster neon framework--><g id="cluster_neon framework"><path d="M96.5,205.13 L213.5,205.13 A3.75,3.75 0 0 1 216,207.63 L223,230.1979 L626.5,230.1979 A2.5,2.5 0 0 1 629,232.6979 L629,414.77 A2.5,2.5 0 0 1 626.5,417.27 L96.5,417.27 A2.5,2.5 0 0 1 94,414.77 L94,207.63 A2.5,2.5 0 0 1 96.5,205.13 " fill="none" style="stroke:#000000;stroke-width:1.5;"/><line style="stroke:#000000;stroke-width:1.5;" x1="94" x2="223" y1="230.1979" y2="230.1979"/><text fill="#000000" font-family="sans-serif" font-size="14" font-weight="bold" lengthAdjust="spacing" textLength="116" x="98" y="222.0959">neon framework</text></g><!--cluster App implementations--><g id="cluster_App implementations"><path d="M8.5,78.07 L160.5,78.07 A3.75,3.75 0 0 1 163,80.57 L170,103.1379 L643.5,103.1379 A2.5,2.5 0 0 1 646,105.6379 L646,178.63 A2.5,2.5 0 0 1 643.5,181.13 L8.5,181.13 A2.5,2.5 0 0 1 6,178.63 L6,80.57 A2.5,2.5 0 0 1 8.5,78.07 " fill="none" style="stroke:#000000;stroke-width:1.5;"/><line style="stroke:#000000;stroke-width:1.5;" x1="6" x2="170" y1="103.1379" y2="103.1379"/><text fill="#000000" font-family="sans-serif" font-size="14" font-weight="bold" lengthAdjust="spacing" textLength="151" x="10" y="95.0359">App implementations</text></g><!--cluster OpenAPI--><g id="cluster_OpenAPI"><path d="M655.5,205.13 L717.5,205.13 A3.75,3.75 0 0 1 720,207.63 L727,230.1979 L899.5,230.1979 A2.5,2.5 0 0 1 902,232.6979 L902,305.7 A2.5,2.5 0 0 1 899.5,308.2 L655.5,308.2 A2.5,2.5 0 0 1 653,305.7 L653,207.63 A2.5,2.5 0 0 1 655.5,205.13 " fill="none" style="stroke:#000000;stroke-width:1.5;"/><line style="stroke:#000000;stroke-width:1.5;" x1="653" x2="727" y1="230.1979" y2="230.1979"/><text fill="#000000" font-family="sans-serif" font-size="14" font-weight="bold" lengthAdjust="spacing" textLength="61" x="657" y="222.0959">OpenAPI</text></g><!--entity neon--><g id="elem_neon"><rect fill="#F1F1F1" height="49.0679" rx="2.5" ry="2.5" style="stroke:#181818;stroke-width:0.5;" width="74" x="317" y="243.13"/><rect fill="#F1F1F1" height="10" style="stroke:#181818;stroke-width:0.5;" width="15" x="371" y="248.13"/><rect fill="#F1F1F1" height="2" style="stroke:#181818;stroke-width:0.5;" width="4" x="369" y="250.13"/><rect fill="#F1F1F1" height="2" style="stroke:#181818;stroke-width:0.5;" width="4" x="369" y="254.13"/><text fill="#000000" font-family="sans-serif" font-size="14" lengthAdjust="spacing" textLength="34" x="332" y="278.0959">neon</text></g><!--entity nextcloud--><g id="elem_nextcloud"><rect fill="#F1F1F1" height="49.0679" rx="2.5" ry="2.5" style="stroke:#181818;stroke-width:0.5;" width="106" x="507" y="352.2"/><rect fill="#F1F1F1" height="10" style="stroke:#181818;stroke-width:0.5;" width="15" x="593" y="357.2"/><rect fill="#F1F1F1" height="2" style="stroke:#181818;stroke-width:0.5;" width="4" x="591" y="359.2"/><rect fill="#F1F1F1" height="2" style="stroke:#181818;stroke-width:0.5;" width="4" x="591" y="363.2"/><text fill="#000000" font-family="sans-serif" font-size="14" lengthAdjust="spacing" textLength="66" x="522" y="387.1659">nextcloud</text></g><!--entity settings--><g id="elem_settings"><rect fill="#F1F1F1" height="49.0679" rx="2.5" ry="2.5" style="stroke:#181818;stroke-width:0.5;" width="94" x="110" y="352.2"/><rect fill="#F1F1F1" height="10" style="stroke:#181818;stroke-width:0.5;" width="15" x="184" y="357.2"/><rect fill="#F1F1F1" height="2" style="stroke:#181818;stroke-width:0.5;" width="4" x="182" y="359.2"/><rect fill="#F1F1F1" height="2" style="stroke:#181818;stroke-width:0.5;" width="4" x="182" y="363.2"/><text fill="#000000" font-family="sans-serif" font-size="14" lengthAdjust="spacing" textLength="54" x="125" y="387.1659">settings</text></g><!--entity sort_box--><g id="elem_sort_box"><rect fill="#F1F1F1" height="49.0679" rx="2.5" ry="2.5" style="stroke:#181818;stroke-width:0.5;" width="96" x="239" y="352.2"/><rect fill="#F1F1F1" height="10" style="stroke:#181818;stroke-width:0.5;" width="15" x="315" y="357.2"/><rect fill="#F1F1F1" height="2" style="stroke:#181818;stroke-width:0.5;" width="4" x="313" y="359.2"/><rect fill="#F1F1F1" height="2" style="stroke:#181818;stroke-width:0.5;" width="4" x="313" y="363.2"/><text fill="#000000" font-family="sans-serif" font-size="14" lengthAdjust="spacing" textLength="56" x="254" y="387.1659">sort_box</text></g><!--entity file_icons--><g id="elem_file_icons"><rect fill="#F1F1F1" height="49.0679" rx="2.5" ry="2.5" style="stroke:#181818;stroke-width:0.5;" width="102" x="370" y="352.2"/><rect fill="#F1F1F1" height="10" style="stroke:#181818;stroke-width:0.5;" width="15" x="452" y="357.2"/><rect fill="#F1F1F1" height="2" style="stroke:#181818;stroke-width:0.5;" width="4" x="450" y="359.2"/><rect fill="#F1F1F1" height="2" style="stroke:#181818;stroke-width:0.5;" width="4" x="450" y="363.2"/><text fill="#000000" font-family="sans-serif" font-size="14" lengthAdjust="spacing" textLength="62" x="385" y="387.1659">file_icons</text></g><!--entity neon_files--><g id="elem_neon_files"><rect fill="#F1F1F1" height="49.0679" rx="2.5" ry="2.5" style="stroke:#181818;stroke-width:0.5;" width="108" x="522" y="116.07"/><rect fill="#F1F1F1" height="10" style="stroke:#181818;stroke-width:0.5;" width="15" x="610" y="121.07"/><rect fill="#F1F1F1" height="2" style="stroke:#181818;stroke-width:0.5;" width="4" x="608" y="123.07"/><rect fill="#F1F1F1" height="2" style="stroke:#181818;stroke-width:0.5;" width="4" x="608" y="127.07"/><text fill="#000000" font-family="sans-serif" font-size="14" lengthAdjust="spacing" textLength="68" x="537" y="151.0359">neon_files</text></g><!--entity neon_news--><g id="elem_neon_news"><rect fill="#F1F1F1" height="49.0679" rx="2.5" ry="2.5" style="stroke:#181818;stroke-width:0.5;" width="115" x="372.5" y="116.07"/><rect fill="#F1F1F1" height="10" style="stroke:#181818;stroke-width:0.5;" width="15" x="467.5" y="121.07"/><rect fill="#F1F1F1" height="2" style="stroke:#181818;stroke-width:0.5;" width="4" x="465.5" y="123.07"/><rect fill="#F1F1F1" height="2" style="stroke:#181818;stroke-width:0.5;" width="4" x="465.5" y="127.07"/><text fill="#000000" font-family="sans-serif" font-size="14" lengthAdjust="spacing" textLength="75" x="387.5" y="151.0359">neon_news</text></g><!--entity neon_notes--><g id="elem_neon_notes"><rect fill="#F1F1F1" height="49.0679" rx="2.5" ry="2.5" style="stroke:#181818;stroke-width:0.5;" width="117" x="220.5" y="116.07"/><rect fill="#F1F1F1" height="10" style="stroke:#181818;stroke-width:0.5;" width="15" x="317.5" y="121.07"/><rect fill="#F1F1F1" height="2" style="stroke:#181818;stroke-width:0.5;" width="4" x="315.5" y="123.07"/><rect fill="#F1F1F1" height="2" style="stroke:#181818;stroke-width:0.5;" width="4" x="315.5" y="127.07"/><text fill="#000000" font-family="sans-serif" font-size="14" lengthAdjust="spacing" textLength="77" x="235.5" y="151.0359">neon_notes</text></g><!--entity neon_notifications--><g id="elem_neon_notifications"><rect fill="#F1F1F1" height="49.0679" rx="2.5" ry="2.5" style="stroke:#181818;stroke-width:0.5;" width="163" x="22.5" y="116.07"/><rect fill="#F1F1F1" height="10" style="stroke:#181818;stroke-width:0.5;" width="15" x="165.5" y="121.07"/><rect fill="#F1F1F1" height="2" style="stroke:#181818;stroke-width:0.5;" width="4" x="163.5" y="123.07"/><rect fill="#F1F1F1" height="2" style="stroke:#181818;stroke-width:0.5;" width="4" x="163.5" y="127.07"/><text fill="#000000" font-family="sans-serif" font-size="14" lengthAdjust="spacing" textLength="123" x="37.5" y="151.0359">neon_notifications</text></g><!--entity dynamite--><g id="elem_dynamite"><rect fill="#F1F1F1" height="49.0679" rx="2.5" ry="2.5" style="stroke:#181818;stroke-width:0.5;" width="103" x="782.5" y="243.13"/><rect fill="#F1F1F1" height="10" style="stroke:#181818;stroke-width:0.5;" width="15" x="865.5" y="248.13"/><rect fill="#F1F1F1" height="2" style="stroke:#181818;stroke-width:0.5;" width="4" x="863.5" y="250.13"/><rect fill="#F1F1F1" height="2" style="stroke:#181818;stroke-width:0.5;" width="4" x="863.5" y="254.13"/><text fill="#000000" font-family="sans-serif" font-size="14" lengthAdjust="spacing" textLength="63" x="797.5" y="278.0959">dynamite</text></g><!--entity specs--><g id="elem_specs"><rect fill="#F1F1F1" height="49.0679" rx="2.5" ry="2.5" style="stroke:#181818;stroke-width:0.5;" width="78" x="669" y="243.13"/><rect fill="#F1F1F1" height="10" style="stroke:#181818;stroke-width:0.5;" width="15" x="727" y="248.13"/><rect fill="#F1F1F1" height="2" style="stroke:#181818;stroke-width:0.5;" width="4" x="725" y="250.13"/><rect fill="#F1F1F1" height="2" style="stroke:#181818;stroke-width:0.5;" width="4" x="725" y="254.13"/><text fill="#000000" font-family="sans-serif" font-size="14" lengthAdjust="spacing" textLength="38" x="684" y="278.0959">specs</text></g><!--entity app--><g id="elem_app"><rect fill="#F1F1F1" height="49.0679" rx="2.5" ry="2.5" style="stroke:#181818;stroke-width:0.5;" width="66" x="321" y="7"/><rect fill="#F1F1F1" height="10" style="stroke:#181818;stroke-width:0.5;" width="15" x="367" y="12"/><rect fill="#F1F1F1" height="2" style="stroke:#181818;stroke-width:0.5;" width="4" x="365" y="14"/><rect fill="#F1F1F1" height="2" style="stroke:#181818;stroke-width:0.5;" width="4" x="365" y="18"/><text fill="#000000" font-family="sans-serif" font-size="14" lengthAdjust="spacing" textLength="26" x="336" y="41.9659">app</text></g><!--link app to neon_files--><g id="link_app_neon_files"><path d="M387.36,35.71 C419.26,39.9 467.85,49.32 505,70.07 C523.57,80.43 540.71,96.94 553.5,111.26 " fill="none" id="app-to-neon_files" style="stroke:#181818;stroke-width:1.0;stroke-dasharray:7.0,7.0;"/><polygon fill="#181818" points="557.33,114.63,554.4163,105.222,554.0385,110.8662,548.3943,110.4884,557.33,114.63" style="stroke:#181818;stroke-width:1.0;"/></g><!--link app to neon_news--><g id="link_app_neon_news"><path d="M371.06,56.56 C382.5,72.68 397.62,93.99 409.69,110.98 " fill="none" id="app-to-neon_news" style="stroke:#181818;stroke-width:1.0;stroke-dasharray:7.0,7.0;"/><polygon fill="#181818" points="413,114.65,411.0366,104.9988,410.0992,110.5775,404.5206,109.6401,413,114.65" style="stroke:#181818;stroke-width:1.0;"/></g><!--link app to neon_notes--><g id="link_app_neon_notes"><path d="M337.17,56.56 C325.88,72.68 310.95,93.99 299.05,110.98 " fill="none" id="app-to-neon_notes" style="stroke:#181818;stroke-width:1.0;stroke-dasharray:7.0,7.0;"/><polygon fill="#181818" points="295.78,114.65,304.2193,109.5727,298.6483,110.5545,297.6665,104.9835,295.78,114.65" style="stroke:#181818;stroke-width:1.0;"/></g><!--link app to neon_notifications--><g id="link_app_neon_notifications"><path d="M320.73,37.18 C289.33,42.4 241.46,52.52 203,70.07 C179.22,80.91 155.16,97.65 136.72,111.98 " fill="none" id="app-to-neon_notifications" style="stroke:#181818;stroke-width:1.0;stroke-dasharray:7.0,7.0;"/><polygon fill="#181818" points="133.15,115.57,142.6974,113.1518,137.0806,112.4796,137.7528,106.8629,133.15,115.57" style="stroke:#181818;stroke-width:1.0;"/></g><!--link neon_files to neon--><g id="link_neon_files_neon"><path d="M541.85,165.63 C530.32,173.42 517.27,181.91 505,189.13 C469.23,210.2 427.11,231.55 396.46,246.5 " fill="none" id="neon_files-to-neon" style="stroke:#181818;stroke-width:1.0;"/><polygon fill="#181818" points="392.26,249.03,402.1032,248.6959,396.7575,246.8455,398.608,241.4998,392.26,249.03" style="stroke:#181818;stroke-width:1.0;"/></g><!--link neon_news to neon--><g id="link_neon_news_neon"><path d="M415.53,165.42 C403.01,186.02 384.87,215.87 371.53,237.82 " fill="none" id="neon_news-to-neon" style="stroke:#181818;stroke-width:1.0;"/><polygon fill="#181818" points="368.42,241.94,376.5026,236.3122,371.0093,237.6627,369.6589,232.1694,368.42,241.94" style="stroke:#181818;stroke-width:1.0;"/></g><!--link neon_notes to neon--><g id="link_neon_notes_neon"><path d="M293.28,165.42 C305.64,186.02 323.54,215.87 336.7,237.82 " fill="none" id="neon_notes-to-neon" style="stroke:#181818;stroke-width:1.0;"/><polygon fill="#181818" points="339.77,241.94,338.5695,232.1646,337.1975,237.6525,331.7096,236.2805,339.77,241.94" style="stroke:#181818;stroke-width:1.0;"/></g><!--link neon_notifications to neon--><g id="link_neon_notifications_neon"><path d="M151.91,165.57 C198.09,188.67 267.32,223.3 311.57,245.44 " fill="none" id="neon_notifications-to-neon" style="stroke:#181818;stroke-width:1.0;"/><polygon fill="#181818" points="315.84,248.08,309.5887,240.4694,311.3707,245.8382,306.0019,247.6202,315.84,248.08" style="stroke:#181818;stroke-width:1.0;"/></g><!--link neon to nextcloud--><g id="link_neon_nextcloud"><path d="M391.31,288.06 C424.13,305.12 472.22,330.11 508.67,349.06 " fill="none" id="neon-to-nextcloud" style="stroke:#181818;stroke-width:1.0;"/><polygon fill="#181818" points="512.96,351.81,506.8165,344.1121,508.5227,349.5055,503.1293,351.2117,512.96,351.81" style="stroke:#181818;stroke-width:1.0;"/></g><!--link neon to settings--><g id="link_neon_settings"><path d="M316.95,288.81 C285.61,305.84 240.45,330.38 206.11,349.05 " fill="none" id="neon-to-settings" style="stroke:#181818;stroke-width:1.0;"/><polygon fill="#181818" points="202.12,351.76,211.9384,350.9865,206.5155,349.3767,208.1252,343.9538,202.12,351.76" style="stroke:#181818;stroke-width:1.0;"/></g><!--link neon to sort_box--><g id="link_neon_sort_box"><path d="M338.96,292.7 C328.88,308.81 315.54,330.12 304.91,347.12 " fill="none" id="neon-to-sort_box" style="stroke:#181818;stroke-width:1.0;"/><polygon fill="#181818" points="301.99,350.79,310.157,345.2854,304.6438,346.5524,303.3768,341.0393,301.99,350.79" style="stroke:#181818;stroke-width:1.0;"/></g><!--link neon to file_icons--><g id="link_neon_file_icons"><path d="M369.04,292.7 C379.12,308.81 392.46,330.12 403.09,347.12 " fill="none" id="neon-to-file_icons" style="stroke:#181818;stroke-width:1.0;"/><polygon fill="#181818" points="406.01,350.79,404.6232,341.0393,403.3562,346.5524,397.843,345.2854,406.01,350.79" style="stroke:#181818;stroke-width:1.0;"/></g><!--link dynamite to nextcloud--><g id="link_dynamite_nextcloud"><path d="M803.2,292.64 C791.42,300.97 777.55,309.82 764,316.2 C717.3,338.2 660.71,353.94 618.99,363.68 " fill="none" id="dynamite-to-nextcloud" style="stroke:#181818;stroke-width:1.0;"/><polygon fill="#181818" points="614.2,365.02,623.8706,366.8855,619.071,363.8915,622.065,359.092,614.2,365.02" style="stroke:#181818;stroke-width:1.0;"/></g><!--link specs to nextcloud--><g id="link_specs_nextcloud"><path d="M674.79,292.7 C651.93,309.23 621.54,331.22 597.77,348.42 " fill="none" id="specs-to-nextcloud" style="stroke:#181818;stroke-width:1.0;"/><polygon fill="#181818" points="594.1,351.79,603.7386,349.7658,598.1541,348.8636,599.0563,343.2791,594.1,351.79" style="stroke:#181818;stroke-width:1.0;"/></g><!--SRC=[TP5D3e8m48NtSug6lHx1nAKhlG6fPI2DT6O2DM2CTvSVeL2mYoRzNlFwEa-qUUW2LKB8fF9AEsouUYJg3QfRXfqm8NdLwnlKUbFoCujuZTvRAkeOS-NJExSHpcs9gJLCDNm0PCfp5b7MIOckkwIzxVJzK6blKEy9XCq-Pu__19jRCxwsIdCLfFFjiasGlKWxwp7-gw0P70BI8W3Tfex7qpBu2WsHrsG86wD5J0XUwd0Ohy1i5gFURSk2NT16uzzvAdf6SyU1JFNEPD4iJ7EA_8OvHUmB]--></g></svg>