<?xml version="1.0" encoding="us-ascii" standalone="no"?><svg xmlns="http://www.w3.org/2000/svg" xmlns:xlink="http://www.w3.org/1999/xlink" contentStyleType="text/css" height="424px" preserveAspectRatio="none" style="width:896px;height:424px;background:#FFFFFF;" version="1.1" viewBox="0 0 896 424" width="896px" zoomAndPan="magnify"><defs/><g><!--cluster Neon framework--><g id="cluster_Neon framework"><path d="M158.5,205.13 L277.5,205.13 A3.75,3.75 0 0 1 280,207.63 L287,230.1979 L559.5,230.1979 A2.5,2.5 0 0 1 562,232.6979 L562,414.77 A2.5,2.5 0 0 1 559.5,417.27 L158.5,417.27 A2.5,2.5 0 0 1 156,414.77 L156,207.63 A2.5,2.5 0 0 1 158.5,205.13 " fill="none" style="stroke:#000000;stroke-width:1.5;"/><line style="stroke:#000000;stroke-width:1.5;" x1="156" x2="287" y1="230.1979" y2="230.1979"/><text fill="#000000" font-family="sans-serif" font-size="14" font-weight="bold" lengthAdjust="spacing" textLength="118" x="160" y="222.0959">Neon framework</text></g><!--cluster Clients--><g id="cluster_Clients"><path d="M8.5,78.07 L56.5,78.07 A3.75,3.75 0 0 1 59,80.57 L66,103.1379 L643.5,103.1379 A2.5,2.5 0 0 1 646,105.6379 L646,178.63 A2.5,2.5 0 0 1 643.5,181.13 L8.5,181.13 A2.5,2.5 0 0 1 6,178.63 L6,80.57 A2.5,2.5 0 0 1 8.5,78.07 " fill="none" style="stroke:#000000;stroke-width:1.5;"/><line style="stroke:#000000;stroke-width:1.5;" x1="6" x2="66" y1="103.1379" y2="103.1379"/><text fill="#000000" font-family="sans-serif" font-size="14" font-weight="bold" lengthAdjust="spacing" textLength="47" x="10" y="95.0359">Clients</text></g><!--cluster OpenAPI--><g id="cluster_OpenAPI"><path d="M588.5,205.13 L650.5,205.13 A3.75,3.75 0 0 1 653,207.63 L660,230.1979 L886.5,230.1979 A2.5,2.5 0 0 1 889,232.6979 L889,305.7 A2.5,2.5 0 0 1 886.5,308.2 L588.5,308.2 A2.5,2.5 0 0 1 586,305.7 L586,207.63 A2.5,2.5 0 0 1 588.5,205.13 " fill="none" style="stroke:#000000;stroke-width:1.5;"/><line style="stroke:#000000;stroke-width:1.5;" x1="586" x2="660" y1="230.1979" y2="230.1979"/><text fill="#000000" font-family="sans-serif" font-size="14" font-weight="bold" lengthAdjust="spacing" textLength="61" x="590" y="222.0959">OpenAPI</text></g><!--entity neon--><g id="elem_neon"><rect fill="#F1F1F1" height="49.0679" rx="2.5" ry="2.5" style="stroke:#181818;stroke-width:0.5;" width="74" x="317" y="243.13"/><rect fill="#F1F1F1" height="10" style="stroke:#181818;stroke-width:0.5;" width="15" x="371" y="248.13"/><rect fill="#F1F1F1" height="2" style="stroke:#181818;stroke-width:0.5;" width="4" x="369" y="250.13"/><rect fill="#F1F1F1" height="2" style="stroke:#181818;stroke-width:0.5;" width="4" x="369" y="254.13"/><text fill="#000000" font-family="sans-serif" font-size="14" lengthAdjust="spacing" textLength="34" x="332" y="278.0959">neon</text></g><!--entity nextcloud--><g id="elem_nextcloud"><rect fill="#F1F1F1" height="49.0679" rx="2.5" ry="2.5" style="stroke:#181818;stroke-width:0.5;" width="106" x="440" y="352.2"/><rect fill="#F1F1F1" height="10" style="stroke:#181818;stroke-width:0.5;" width="15" x="526" y="357.2"/><rect fill="#F1F1F1" height="2" style="stroke:#181818;stroke-width:0.5;" width="4" x="524" y="359.2"/><rect fill="#F1F1F1" height="2" style="stroke:#181818;stroke-width:0.5;" width="4" x="524" y="363.2"/><text fill="#000000" font-family="sans-serif" font-size="14" lengthAdjust="spacing" textLength="66" x="455" y="387.1659">nextcloud</text></g><!--entity settings--><g id="elem_settings"><rect fill="#F1F1F1" height="49.0679" rx="2.5" ry="2.5" style="stroke:#181818;stroke-width:0.5;" width="94" x="180" y="243.13"/><rect fill="#F1F1F1" height="10" style="stroke:#181818;stroke-width:0.5;" width="15" x="254" y="248.13"/><rect fill="#F1F1F1" height="2" style="stroke:#181818;stroke-width:0.5;" width="4" x="252" y="250.13"/><rect fill="#F1F1F1" height="2" style="stroke:#181818;stroke-width:0.5;" width="4" x="252" y="254.13"/><text fill="#000000" font-family="sans-serif" font-size="14" lengthAdjust="spacing" textLength="54" x="195" y="278.0959">settings</text></g><!--entity sort_box--><g id="elem_sort_box"><rect fill="#F1F1F1" height="49.0679" rx="2.5" ry="2.5" style="stroke:#181818;stroke-width:0.5;" width="96" x="172" y="352.2"/><rect fill="#F1F1F1" height="10" style="stroke:#181818;stroke-width:0.5;" width="15" x="248" y="357.2"/><rect fill="#F1F1F1" height="2" style="stroke:#181818;stroke-width:0.5;" width="4" x="246" y="359.2"/><rect fill="#F1F1F1" height="2" style="stroke:#181818;stroke-width:0.5;" width="4" x="246" y="363.2"/><text fill="#000000" font-family="sans-serif" font-size="14" lengthAdjust="spacing" textLength="56" x="187" y="387.1659">sort_box</text></g><!--entity file_icons--><g id="elem_file_icons"><rect fill="#F1F1F1" height="49.0679" rx="2.5" ry="2.5" style="stroke:#181818;stroke-width:0.5;" width="102" x="303" y="352.2"/><rect fill="#F1F1F1" height="10" style="stroke:#181818;stroke-width:0.5;" width="15" x="385" y="357.2"/><rect fill="#F1F1F1" height="2" style="stroke:#181818;stroke-width:0.5;" width="4" x="383" y="359.2"/><rect fill="#F1F1F1" height="2" style="stroke:#181818;stroke-width:0.5;" width="4" x="383" y="363.2"/><text fill="#000000" font-family="sans-serif" font-size="14" lengthAdjust="spacing" textLength="62" x="318" y="387.1659">file_icons</text></g><!--entity neon_files--><g id="elem_neon_files"><rect fill="#F1F1F1" height="49.0679" rx="2.5" ry="2.5" style="stroke:#181818;stroke-width:0.5;" width="108" x="522" y="116.07"/><rect fill="#F1F1F1" height="10" style="stroke:#181818;stroke-width:0.5;" width="15" x="610" y="121.07"/><rect fill="#F1F1F1" height="2" style="stroke:#181818;stroke-width:0.5;" width="4" x="608" y="123.07"/><rect fill="#F1F1F1" height="2" style="stroke:#181818;stroke-width:0.5;" width="4" x="608" y="127.07"/><text fill="#000000" font-family="sans-serif" font-size="14" lengthAdjust="spacing" textLength="68" x="537" y="151.0359">neon_files</text></g><!--entity neon_news--><g id="elem_neon_news"><rect fill="#F1F1F1" height="49.0679" rx="2.5" ry="2.5" style="stroke:#181818;stroke-width:0.5;" width="115" x="372.5" y="116.07"/><rect fill="#F1F1F1" height="10" style="stroke:#181818;stroke-width:0.5;" width="15" x="467.5" y="121.07"/><rect fill="#F1F1F1" height="2" style="stroke:#181818;stroke-width:0.5;" width="4" x="465.5" y="123.07"/><rect fill="#F1F1F1" height="2" style="stroke:#181818;stroke-width:0.5;" width="4" x="465.5" y="127.07"/><text fill="#000000" font-family="sans-serif" font-size="14" lengthAdjust="spacing" textLength="75" x="387.5" y="151.0359">neon_news</text></g><!--entity neon_notes--><g id="elem_neon_notes"><rect fill="#F1F1F1" height="49.0679" rx="2.5" ry="2.5" style="stroke:#181818;stroke-width:0.5;" width="117" x="220.5" y="116.07"/><rect fill="#F1F1F1" height="10" style="stroke:#181818;stroke-width:0.5;" width="15" x="317.5" y="121.07"/><rect fill="#F1F1F1" height="2" style="stroke:#181818;stroke-width:0.5;" width="4" x="315.5" y="123.07"/><rect fill="#F1F1F1" height="2" style="stroke:#181818;stroke-width:0.5;" width="4" x="315.5" y="127.07"/><text fill="#000000" font-family="sans-serif" font-size="14" lengthAdjust="spacing" textLength="77" x="235.5" y="151.0359">neon_notes</text></g><!--entity neon_notifications--><g id="elem_neon_notifications"><rect fill="#F1F1F1" height="49.0679" rx="2.5" ry="2.5" style="stroke:#181818;stroke-width:0.5;" width="163" x="22.5" y="116.07"/><rect fill="#F1F1F1" height="10" style="stroke:#181818;stroke-width:0.5;" width="15" x="165.5" y="121.07"/><rect fill="#F1F1F1" height="2" style="stroke:#181818;stroke-width:0.5;" width="4" x="163.5" y="123.07"/><rect fill="#F1F1F1" height="2" style="stroke:#181818;stroke-width:0.5;" width="4" x="163.5" y="127.07"/><text fill="#000000" font-family="sans-serif" font-size="14" lengthAdjust="spacing" textLength="123" x="37.5" y="151.0359">neon_notifications</text></g><!--entity dynamite--><g id="elem_dynamite"><rect fill="#F1F1F1" height="49.0679" rx="2.5" ry="2.5" style="stroke:#181818;stroke-width:0.5;" width="103" x="769.5" y="243.13"/><rect fill="#F1F1F1" height="10" style="stroke:#181818;stroke-width:0.5;" width="15" x="852.5" y="248.13"/><rect fill="#F1F1F1" height="2" style="stroke:#181818;stroke-width:0.5;" width="4" x="850.5" y="250.13"/><rect fill="#F1F1F1" height="2" style="stroke:#181818;stroke-width:0.5;" width="4" x="850.5" y="254.13"/><text fill="#000000" font-family="sans-serif" font-size="14" lengthAdjust="spacing" textLength="63" x="784.5" y="278.0959">dynamite</text></g><!--entity specifications--><g id="elem_specifications"><rect fill="#F1F1F1" height="49.0679" rx="2.5" ry="2.5" style="stroke:#181818;stroke-width:0.5;" width="132" x="602" y="243.13"/><rect fill="#F1F1F1" height="10" style="stroke:#181818;stroke-width:0.5;" width="15" x="714" y="248.13"/><rect fill="#F1F1F1" height="2" style="stroke:#181818;stroke-width:0.5;" width="4" x="712" y="250.13"/><rect fill="#F1F1F1" height="2" style="stroke:#181818;stroke-width:0.5;" width="4" x="712" y="254.13"/><text fill="#000000" font-family="sans-serif" font-size="14" lengthAdjust="spacing" textLength="92" x="617" y="278.0959">specifications</text></g><!--entity app--><g id="elem_app"><rect fill="#F1F1F1" height="49.0679" rx="2.5" ry="2.5" style="stroke:#181818;stroke-width:0.5;" width="66" x="321" y="7"/><rect fill="#F1F1F1" height="10" style="stroke:#181818;stroke-width:0.5;" width="15" x="367" y="12"/><rect fill="#F1F1F1" height="2" style="stroke:#181818;stroke-width:0.5;" width="4" x="365" y="14"/><rect fill="#F1F1F1" height="2" style="stroke:#181818;stroke-width:0.5;" width="4" x="365" y="18"/><text fill="#000000" font-family="sans-serif" font-size="14" lengthAdjust="spacing" textLength="26" x="336" y="41.9659">app</text></g><!--link app to neon_files--><g id="link_app_neon_files"><path d="M387.36,35.71 C419.26,39.9 467.85,49.32 505,70.07 C523.41,80.34 540.42,96.65 553.17,110.89 " fill="none" id="app-to-neon_files" style="stroke:#181818;stroke-width:1.0;stroke-dasharray:7.0,7.0;"/><polygon fill="#181818" points="556.33,114.49,553.3961,105.0883,553.0304,110.7333,547.3854,110.3676,556.33,114.49" style="stroke:#181818;stroke-width:1.0;"/></g><!--link app to neon_news--><g id="link_app_neon_news"><path d="M371.06,56.56 C382.4,72.54 397.36,93.62 409.38,110.54 " fill="none" id="app-to-neon_news" style="stroke:#181818;stroke-width:1.0;stroke-dasharray:7.0,7.0;"/><polygon fill="#181818" points="412.12,114.42,410.1951,104.7611,409.2355,110.336,403.6606,109.3763,412.12,114.42" style="stroke:#181818;stroke-width:1.0;"/></g><!--link app to neon_notes--><g id="link_app_neon_notes"><path d="M337.17,56.56 C325.97,72.54 311.21,93.62 299.35,110.54 " fill="none" id="app-to-neon_notes" style="stroke:#181818;stroke-width:1.0;stroke-dasharray:7.0,7.0;"/><polygon fill="#181818" points="296.64,114.41,305.0793,109.3327,299.5083,110.3145,298.5265,104.7435,296.64,114.41" style="stroke:#181818;stroke-width:1.0;"/></g><!--link app to neon_notifications--><g id="link_app_neon_notifications"><path d="M320.73,37.18 C289.33,42.4 241.46,52.52 203,70.07 C179.42,80.82 155.57,97.37 137.19,111.62 " fill="none" id="app-to-neon_notifications" style="stroke:#181818;stroke-width:1.0;stroke-dasharray:7.0,7.0;"/><polygon fill="#181818" points="133.34,114.63,142.8885,112.2164,137.2721,111.5415,137.947,105.9251,133.34,114.63" style="stroke:#181818;stroke-width:1.0;"/></g><!--link neon_files to neon--><g id="link_neon_files_neon"><path d="M541.85,165.63 C530.32,173.42 517.27,181.91 505,189.13 C469.38,210.11 427.46,231.38 396.84,246.32 " fill="none" id="neon_files-to-neon" style="stroke:#181818;stroke-width:1.0;"/><polygon fill="#181818" points="392.62,248.37,402.4632,248.0359,397.1175,246.1855,398.968,240.8398,392.62,248.37" style="stroke:#181818;stroke-width:1.0;"/></g><!--link neon_news to neon--><g id="link_neon_news_neon"><path d="M415.53,165.42 C403.06,185.93 385.02,215.62 371.7,237.54 " fill="none" id="neon_news-to-neon" style="stroke:#181818;stroke-width:1.0;"/><polygon fill="#181818" points="369.21,241.64,377.3063,236.032,371.8097,237.369,370.4727,231.8724,369.21,241.64" style="stroke:#181818;stroke-width:1.0;"/></g><!--link neon_notes to neon--><g id="link_neon_notes_neon"><path d="M293.28,165.42 C305.59,185.93 323.39,215.62 336.53,237.54 " fill="none" id="neon_notes-to-neon" style="stroke:#181818;stroke-width:1.0;"/><polygon fill="#181818" points="338.99,241.64,337.7895,231.8646,336.4175,237.3525,330.9296,235.9805,338.99,241.64" style="stroke:#181818;stroke-width:1.0;"/></g><!--link neon_notifications to neon--><g id="link_neon_notifications_neon"><path d="M145.1,165.41 C162.43,174.35 183.15,183.67 203,189.13 C241.29,199.68 256.52,179.28 292,197.13 C310.04,206.21 325.24,222.98 336.07,237.78 " fill="none" id="neon_notifications-to-neon" style="stroke:#181818;stroke-width:1.0;"/><polygon fill="#181818" points="338.69,241.47,336.7266,231.8188,335.7892,237.3975,330.2106,236.4601,338.69,241.47" style="stroke:#181818;stroke-width:1.0;"/></g><!--link neon to nextcloud--><g id="link_neon_nextcloud"><path d="M385.19,292.7 C406.48,309.09 434.73,330.85 456.97,347.98 " fill="none" id="neon-to-nextcloud" style="stroke:#181818;stroke-width:1.0;"/><polygon fill="#181818" points="460.71,350.86,456.0333,342.1923,456.7533,347.8032,451.1424,348.5231,460.71,350.86" style="stroke:#181818;stroke-width:1.0;"/></g><!--link neon to sort_box--><g id="link_neon_sort_box"><path d="M323.93,292.7 C303.5,309.02 276.4,330.67 255,347.77 " fill="none" id="neon-to-sort_box" style="stroke:#181818;stroke-width:1.0;"/><polygon fill="#181818" points="251.15,350.84,260.6833,348.3667,255.0627,347.727,255.7024,342.1064,251.15,350.84" style="stroke:#181818;stroke-width:1.0;"/></g><!--link neon to file_icons--><g id="link_neon_file_icons"><path d="M354,292.7 C354,308.26 354,328.67 354,345.36 " fill="none" id="neon-to-file_icons" style="stroke:#181818;stroke-width:1.0;"/><polygon fill="#181818" points="354,350.27,358,341.27,354,345.27,350,341.27,354,350.27" style="stroke:#181818;stroke-width:1.0;"/></g><!--link dynamite to nextcloud--><g id="link_dynamite_nextcloud"><path d="M791.08,292.58 C779.18,301.1 765,310.09 751,316.2 C686.33,344.44 606.45,360.22 552.85,368.33 " fill="none" id="dynamite-to-nextcloud" style="stroke:#181818;stroke-width:1.0;"/><polygon fill="#181818" points="547.94,369.06,557.4345,371.678,552.8845,368.3169,556.2456,363.7668,547.94,369.06" style="stroke:#181818;stroke-width:1.0;"/></g><!--link specifications to nextcloud--><g id="link_specifications_nextcloud"><path d="M628.73,292.7 C601.71,309.23 565.76,331.22 537.65,348.42 " fill="none" id="specifications-to-nextcloud" style="stroke:#181818;stroke-width:1.0;"/><polygon fill="#181818" points="533.43,351,543.1957,349.7227,537.6971,348.3939,539.0259,342.8953,533.43,351" style="stroke:#181818;stroke-width:1.0;"/></g><!--SRC=[TP513i8W44NtSmhYtXx1nBXoezwWGPmQqdQ658mQuzrjguLsMbcGy3vy_imuRKfzHRKw89Cg6btZdPjofLwWscMuTan8GL6hpz0Zc8fl5y4zXc3fwYNc9kHdVWXSs0fpQvWyl07Sa6TNsLRroq7oxf5V4WZlovm3_XDiOOqELYOuEgJjQJzFS7cIhcr0MPz3CxLAcdOEeDrKbct65KnGdtrA-jGIZJw1vANMw-yLY6OITMvpbkoIzZN-dOSfHnGd6SbeY32qHxoUjaU87m00]--></g></svg>