<svg xmlns="http://www.w3.org/2000/svg" xmlns:xlink="http://www.w3.org/1999/xlink" contentStyleType="text/css" height="424px" preserveAspectRatio="none" style="width:849px;height:424px;background:#FFFFFF;" version="1.1" viewBox="0 0 849 424" width="849px" zoomAndPan="magnify"><defs/><g><!--cluster Neon framework--><g id="cluster_Neon framework"><path d="M253.5,205.13 L373.5975,205.13 A3.75,3.75 0 0 1 376.0975,207.63 L383.0975,230.1979 L517.5,230.1979 A2.5,2.5 0 0 1 520,232.6979 L520,414.77 A2.5,2.5 0 0 1 517.5,417.27 L253.5,417.27 A2.5,2.5 0 0 1 251,414.77 L251,207.63 A2.5,2.5 0 0 1 253.5,205.13 " fill="none" style="stroke:#000000;stroke-width:1.5;"/><line style="stroke:#000000;stroke-width:1.5;" x1="251" x2="383.0975" y1="230.1979" y2="230.1979"/><text fill="#000000" font-family="sans-serif" font-size="14" font-weight="bold" lengthAdjust="spacing" textLength="119.0975" x="255" y="222.0959">Neon framework</text></g><!--cluster Clients--><g id="cluster_Clients"><path d="M8.5,78.07 L57.4638,78.07 A3.75,3.75 0 0 1 59.9638,80.57 L66.9638,103.1379 L781.5,103.1379 A2.5,2.5 0 0 1 784,105.6379 L784,178.63 A2.5,2.5 0 0 1 781.5,181.13 L8.5,181.13 A2.5,2.5 0 0 1 6,178.63 L6,80.57 A2.5,2.5 0 0 1 8.5,78.07 " fill="none" style="stroke:#000000;stroke-width:1.5;"/><line style="stroke:#000000;stroke-width:1.5;" x1="6" x2="66.9638" y1="103.1379" y2="103.1379"/><text fill="#000000" font-family="sans-serif" font-size="14" font-weight="bold" lengthAdjust="spacing" textLength="47.9638" x="10" y="95.0359">Clients</text></g><!--cluster OpenAPI--><g id="cluster_OpenAPI"><path d="M546.5,205.13 L608.8758,205.13 A3.75,3.75 0 0 1 611.3758,207.63 L618.3758,230.1979 L839.5,230.1979 A2.5,2.5 0 0 1 842,232.6979 L842,305.7 A2.5,2.5 0 0 1 839.5,308.2 L546.5,308.2 A2.5,2.5 0 0 1 544,305.7 L544,207.63 A2.5,2.5 0 0 1 546.5,205.13 " fill="none" style="stroke:#000000;stroke-width:1.5;"/><line style="stroke:#000000;stroke-width:1.5;" x1="544" x2="618.3758" y1="230.1979" y2="230.1979"/><text fill="#000000" font-family="sans-serif" font-size="14" font-weight="bold" lengthAdjust="spacing" textLength="61.3758" x="548" y="222.0959">OpenAPI</text></g><!--entity neon_framework--><g id="elem_neon_framework"><rect fill="#F1F1F1" height="49.0679" rx="2.5" ry="2.5" style="stroke:#181818;stroke-width:0.5;" width="152.0556" x="308.97" y="243.13"/><rect fill="#F1F1F1" height="10" style="stroke:#181818;stroke-width:0.5;" width="15" x="441.0256" y="248.13"/><rect fill="#F1F1F1" height="2" style="stroke:#181818;stroke-width:0.5;" width="4" x="439.0256" y="250.13"/><rect fill="#F1F1F1" height="2" style="stroke:#181818;stroke-width:0.5;" width="4" x="439.0256" y="254.13"/><text fill="#000000" font-family="sans-serif" font-size="14" lengthAdjust="spacing" textLength="112.0556" x="323.97" y="278.0959">neon_framework</text></g><!--entity nextcloud--><g id="elem_nextcloud"><rect fill="#F1F1F1" height="49.0679" rx="2.5" ry="2.5" style="stroke:#181818;stroke-width:0.5;" width="105.0717" x="398.46" y="352.2"/><rect fill="#F1F1F1" height="10" style="stroke:#181818;stroke-width:0.5;" width="15" x="483.5317" y="357.2"/><rect fill="#F1F1F1" height="2" style="stroke:#181818;stroke-width:0.5;" width="4" x="481.5317" y="359.2"/><rect fill="#F1F1F1" height="2" style="stroke:#181818;stroke-width:0.5;" width="4" x="481.5317" y="363.2"/><text fill="#000000" font-family="sans-serif" font-size="14" lengthAdjust="spacing" textLength="65.0717" x="413.46" y="387.1659">nextcloud</text></g><!--entity sort_box--><g id="elem_sort_box"><rect fill="#F1F1F1" height="49.0679" rx="2.5" ry="2.5" style="stroke:#181818;stroke-width:0.5;" width="96.7138" x="266.64" y="352.2"/><rect fill="#F1F1F1" height="10" style="stroke:#181818;stroke-width:0.5;" width="15" x="343.3538" y="357.2"/><rect fill="#F1F1F1" height="2" style="stroke:#181818;stroke-width:0.5;" width="4" x="341.3538" y="359.2"/><rect fill="#F1F1F1" height="2" style="stroke:#181818;stroke-width:0.5;" width="4" x="341.3538" y="363.2"/><text fill="#000000" font-family="sans-serif" font-size="14" lengthAdjust="spacing" textLength="56.7138" x="281.64" y="387.1659">sort_box</text></g><!--entity dashboard_app--><g id="elem_dashboard_app"><rect fill="#F1F1F1" height="49.0679" rx="2.5" ry="2.5" style="stroke:#181818;stroke-width:0.5;" width="142.4376" x="21.78" y="116.07"/><rect fill="#F1F1F1" height="10" style="stroke:#181818;stroke-width:0.5;" width="15" x="144.2176" y="121.07"/><rect fill="#F1F1F1" height="2" style="stroke:#181818;stroke-width:0.5;" width="4" x="142.2176" y="123.07"/><rect fill="#F1F1F1" height="2" style="stroke:#181818;stroke-width:0.5;" width="4" x="142.2176" y="127.07"/><text fill="#000000" font-family="sans-serif" font-size="14" lengthAdjust="spacing" textLength="102.4376" x="36.78" y="151.0359">dashboard_app</text></g><!--entity files_app--><g id="elem_files_app"><rect fill="#F1F1F1" height="49.0679" rx="2.5" ry="2.5" style="stroke:#181818;stroke-width:0.5;" width="97.9318" x="199.03" y="116.07"/><rect fill="#F1F1F1" height="10" style="stroke:#181818;stroke-width:0.5;" width="15" x="276.9618" y="121.07"/><rect fill="#F1F1F1" height="2" style="stroke:#181818;stroke-width:0.5;" width="4" x="274.9618" y="123.07"/><rect fill="#F1F1F1" height="2" style="stroke:#181818;stroke-width:0.5;" width="4" x="274.9618" y="127.07"/><text fill="#000000" font-family="sans-serif" font-size="14" lengthAdjust="spacing" textLength="57.9318" x="214.03" y="151.0359">files_app</text></g><!--entity news_app--><g id="elem_news_app"><rect fill="#F1F1F1" height="49.0679" rx="2.5" ry="2.5" style="stroke:#181818;stroke-width:0.5;" width="105.5477" x="332.23" y="116.07"/><rect fill="#F1F1F1" height="10" style="stroke:#181818;stroke-width:0.5;" width="15" x="417.7777" y="121.07"/><rect fill="#F1F1F1" height="2" style="stroke:#181818;stroke-width:0.5;" width="4" x="415.7777" y="123.07"/><rect fill="#F1F1F1" height="2" style="stroke:#181818;stroke-width:0.5;" width="4" x="415.7777" y="127.07"/><text fill="#000000" font-family="sans-serif" font-size="14" lengthAdjust="spacing" textLength="65.5477" x="347.23" y="151.0359">news_app</text></g><!--entity notes_app--><g id="elem_notes_app"><rect fill="#F1F1F1" height="49.0679" rx="2.5" ry="2.5" style="stroke:#181818;stroke-width:0.5;" width="108.0677" x="472.97" y="116.07"/><rect fill="#F1F1F1" height="10" style="stroke:#181818;stroke-width:0.5;" width="15" x="561.0377" y="121.07"/><rect fill="#F1F1F1" height="2" style="stroke:#181818;stroke-width:0.5;" width="4" x="559.0377" y="123.07"/><rect fill="#F1F1F1" height="2" style="stroke:#181818;stroke-width:0.5;" width="4" x="559.0377" y="127.07"/><text fill="#000000" font-family="sans-serif" font-size="14" lengthAdjust="spacing" textLength="68.0677" x="487.97" y="151.0359">notes_app</text></g><!--entity notifications_app--><g id="elem_notifications_app"><rect fill="#F1F1F1" height="49.0679" rx="2.5" ry="2.5" style="stroke:#181818;stroke-width:0.5;" width="152.5736" x="615.71" y="116.07"/><rect fill="#F1F1F1" height="10" style="stroke:#181818;stroke-width:0.5;" width="15" x="748.2836" y="121.07"/><rect fill="#F1F1F1" height="2" style="stroke:#181818;stroke-width:0.5;" width="4" x="746.2836" y="123.07"/><rect fill="#F1F1F1" height="2" style="stroke:#181818;stroke-width:0.5;" width="4" x="746.2836" y="127.07"/><text fill="#000000" font-family="sans-serif" font-size="14" lengthAdjust="spacing" textLength="112.5736" x="630.71" y="151.0359">notifications_app</text></g><!--entity dynamite--><g id="elem_dynamite"><rect fill="#F1F1F1" height="49.0679" rx="2.5" ry="2.5" style="stroke:#181818;stroke-width:0.5;" width="101.9078" x="560.05" y="243.13"/><rect fill="#F1F1F1" height="10" style="stroke:#181818;stroke-width:0.5;" width="15" x="641.9578" y="248.13"/><rect fill="#F1F1F1" height="2" style="stroke:#181818;stroke-width:0.5;" width="4" x="639.9578" y="250.13"/><rect fill="#F1F1F1" height="2" style="stroke:#181818;stroke-width:0.5;" width="4" x="639.9578" y="254.13"/><text fill="#000000" font-family="sans-serif" font-size="14" lengthAdjust="spacing" textLength="61.9078" x="575.05" y="278.0959">dynamite</text></g><!--entity specifications--><g id="elem_specifications"><rect fill="#F1F1F1" height="49.0679" rx="2.5" ry="2.5" style="stroke:#181818;stroke-width:0.5;" width="129.0397" x="696.48" y="243.13"/><rect fill="#F1F1F1" height="10" style="stroke:#181818;stroke-width:0.5;" width="15" x="805.5197" y="248.13"/><rect fill="#F1F1F1" height="2" style="stroke:#181818;stroke-width:0.5;" width="4" x="803.5197" y="250.13"/><rect fill="#F1F1F1" height="2" style="stroke:#181818;stroke-width:0.5;" width="4" x="803.5197" y="254.13"/><text fill="#000000" font-family="sans-serif" font-size="14" lengthAdjust="spacing" textLength="89.0397" x="711.48" y="278.0959">specifications</text></g><!--entity app--><g id="elem_app"><rect fill="#F1F1F1" height="49.0679" rx="2.5" ry="2.5" style="stroke:#181818;stroke-width:0.5;" width="65.0739" x="352.46" y="7"/><rect fill="#F1F1F1" height="10" style="stroke:#181818;stroke-width:0.5;" width="15" x="397.5339" y="12"/><rect fill="#F1F1F1" height="2" style="stroke:#181818;stroke-width:0.5;" width="4" x="395.5339" y="14"/><rect fill="#F1F1F1" height="2" style="stroke:#181818;stroke-width:0.5;" width="4" x="395.5339" y="18"/><text fill="#000000" font-family="sans-serif" font-size="14" lengthAdjust="spacing" textLength="25.0739" x="367.46" y="41.9659">app</text></g><!--link app to dashboard_app--><g id="link_app_dashboard_app"><path d="M352.29,33.81 C310.95,36.47 238.37,44.69 182,70.07 C157.5,81.09 138.1616,96.1742 121.3616,111.5842 " fill="none" id="app-to-dashboard_app" style="stroke:#181818;stroke-width:1.0;stroke-dasharray:7.0,7.0;"/><polygon fill="#181818" points="116.94,115.64,126.2763,112.5041,120.6247,112.2602,120.8686,106.6086,116.94,115.64" style="stroke:#181818;stroke-width:1.0;"/></g><!--link app to files_app--><g id="link_app_files_app"><path d="M352.01,47.54 C339.87,53.74 326.32,61.49 315,70.07 C297.36,83.42 284.0539,96.9771 271.4639,111.3471 " fill="none" id="app-to-files_app" style="stroke:#181818;stroke-width:1.0;stroke-dasharray:7.0,7.0;"/><polygon fill="#181818" points="267.51,115.86,276.4495,111.7265,270.8049,112.0992,270.4323,106.4547,267.51,115.86" style="stroke:#181818;stroke-width:1.0;"/></g><!--link app to news_app--><g id="link_app_news_app"><path d="M385,56.56 C385,74.19 385,92.04 385,109.65 " fill="none" id="app-to-news_app" style="stroke:#181818;stroke-width:1.0;stroke-dasharray:7.0,7.0;"/><polygon fill="#181818" points="385,115.65,389,106.65,385,110.65,381,106.65,385,115.65" style="stroke:#181818;stroke-width:1.0;"/></g><!--link app to notes_app--><g id="link_app_notes_app"><path d="M417.83,47.76 C429.95,53.99 443.52,61.7 455,70.07 C473.39,83.48 487.6821,97.0252 501.2821,111.3052 " fill="none" id="app-to-notes_app" style="stroke:#181818;stroke-width:1.0;stroke-dasharray:7.0,7.0;"/><polygon fill="#181818" points="505.42,115.65,502.1097,106.3741,501.9717,112.0293,496.3166,111.8914,505.42,115.65" style="stroke:#181818;stroke-width:1.0;"/></g><!--link app to notifications_app--><g id="link_app_notifications_app"><path d="M417.89,33.59 C461.1,36 538.58,43.96 599,70.07 C624.35,81.02 644.6961,96.2072 662.3161,111.6372 " fill="none" id="app-to-notifications_app" style="stroke:#181818;stroke-width:1.0;stroke-dasharray:7.0,7.0;"/><polygon fill="#181818" points="666.83,115.59,662.6944,106.6515,663.0684,112.296,657.424,112.67,666.83,115.59" style="stroke:#181818;stroke-width:1.0;"/></g><!--link dashboard_app to neon_framework--><g id="link_dashboard_app_neon_framework"><path d="M135.01,165.43 C149.68,173.38 166.38,182.01 182,189.13 C225.77,209.09 270.6473,226.3604 310.3473,240.7104 " fill="none" id="dashboard_app-to-neon_framework" style="stroke:#181818;stroke-width:1.0;"/><polygon fill="#181818" points="315.99,242.75,308.8857,235.9288,311.2878,241.0503,306.1662,243.4524,315.99,242.75" style="stroke:#181818;stroke-width:1.0;"/></g><!--link files_app to neon_framework--><g id="link_files_app_neon_framework"><path d="M274.09,165.42 C298.47,187.67 330.2289,216.6646 354.5789,238.8946 " fill="none" id="files_app-to-neon_framework" style="stroke:#181818;stroke-width:1.0;"/><polygon fill="#181818" points="359.01,242.94,355.0602,233.9179,355.3174,239.5689,349.6664,239.8261,359.01,242.94" style="stroke:#181818;stroke-width:1.0;"/></g><!--link news_app to neon_framework--><g id="link_news_app_neon_framework"><path d="M385,165.42 C385,187.67 385,214.71 385,236.94 " fill="none" id="news_app-to-neon_framework" style="stroke:#181818;stroke-width:1.0;"/><polygon fill="#181818" points="385,242.94,389,233.94,385,237.94,381,233.94,385,242.94" style="stroke:#181818;stroke-width:1.0;"/></g><!--link notes_app to neon_framework--><g id="link_notes_app_neon_framework"><path d="M499.96,165.42 C474.69,187.67 441.6826,216.7443 416.4426,238.9743 " fill="none" id="notes_app-to-neon_framework" style="stroke:#181818;stroke-width:1.0;"/><polygon fill="#181818" points="411.94,242.94,421.3377,239.9933,415.6922,239.6353,416.0502,233.9898,411.94,242.94" style="stroke:#181818;stroke-width:1.0;"/></g><!--link notifications_app to neon_framework--><g id="link_notifications_app_neon_framework"><path d="M652.49,165.42 C636.41,174.15 617.31,183.3 599,189.13 C575.46,196.63 567.75,190.35 544,197.13 C504.46,208.43 467.2651,224.8041 436.1251,240.1041 " fill="none" id="notifications_app-to-neon_framework" style="stroke:#181818;stroke-width:1.0;"/><polygon fill="#181818" points="430.74,242.75,440.5816,242.3713,435.2276,240.5451,437.0538,235.1911,430.74,242.75" style="stroke:#181818;stroke-width:1.0;"/></g><!--link neon_framework to nextcloud--><g id="link_neon_framework_nextcloud"><path d="M399.81,292.7 C410.68,310.33 422.2319,329.0622 433.0919,346.6822 " fill="none" id="neon_framework-to-nextcloud" style="stroke:#181818;stroke-width:1.0;"/><polygon fill="#181818" points="436.24,351.79,434.923,342.0296,433.6165,347.5335,428.1126,346.2271,436.24,351.79" style="stroke:#181818;stroke-width:1.0;"/></g><!--link neon_framework to sort_box--><g id="link_neon_framework_sort_box"><path d="M369.29,292.7 C357.76,310.33 345.4513,329.1468 333.9413,346.7668 " fill="none" id="neon_framework-to-sort_box" style="stroke:#181818;stroke-width:1.0;"/><polygon fill="#181818" points="330.66,351.79,338.9308,346.4427,333.3945,347.604,332.2332,342.0676,330.66,351.79" style="stroke:#181818;stroke-width:1.0;"/></g><!--link dynamite to nextcloud--><g id="link_dynamite_nextcloud"><path d="M575.09,292.7 C548.74,310.33 518.0959,330.8322 491.7759,348.4522 " fill="none" id="dynamite-to-nextcloud" style="stroke:#181818;stroke-width:1.0;"/><polygon fill="#181818" points="486.79,351.79,496.494,350.1072,490.9449,349.0085,492.0436,343.4594,486.79,351.79" style="stroke:#181818;stroke-width:1.0;"/></g><!--link specifications to nextcloud--><g id="link_specifications_nextcloud"><path d="M724.53,292.64 C710.69,300.97 694.52,309.82 679,316.2 C621.12,340.02 556.8609,355.4403 509.8009,364.9603 " fill="none" id="specifications-to-nextcloud" style="stroke:#181818;stroke-width:1.0;"/><polygon fill="#181818" points="503.92,366.15,513.5344,368.2861,508.8207,365.1586,511.9482,360.4449,503.92,366.15" style="stroke:#181818;stroke-width:1.0;"/></g><!--SRC=[TP913eCW44NtSmhIlHx1fEcgcxOtC8XZIrI6A8qsJUzUJ0ig8WiM_y7y-GEQYvhVaHqkI8fL7MzneAu-i3SmkmIrcXGgmvJbkUSRE1hHqBCCz9uwanSqmWT0EwTJ8othjnObxny5yQxCkTO1gsI3VKHNE4HbChYZoqeARYIf7rzsTjMeZhTpfBENugqq6CRJAEPoKwcPJRN1RYnDio2PK-TCJl5flE1pB9GW0QogioJ9miVoHZ7eFAFCsU_0TIUnGm1huN_6VPS8z7y6tDI3E-kf1_0B]--></g></svg>