<svg xmlns="http://www.w3.org/2000/svg" xmlns:xlink="http://www.w3.org/1999/xlink" contentStyleType="text/css" height="424px" preserveAspectRatio="none" style="width:937px;height:424px;background:#FFFFFF;" version="1.1" viewBox="0 0 937 424" width="937px" zoomAndPan="magnify"><defs/><g><!--cluster Neon framework--><g id="cluster_Neon framework"><path d="M193.5,205.13 L312.1875,205.13 A3.75,3.75 0 0 1 314.6875,207.63 L321.6875,230.1979 L600.5,230.1979 A2.5,2.5 0 0 1 603,232.6979 L603,414.77 A2.5,2.5 0 0 1 600.5,417.27 L193.5,417.27 A2.5,2.5 0 0 1 191,414.77 L191,207.63 A2.5,2.5 0 0 1 193.5,205.13 " fill="none" style="stroke:#000000;stroke-width:1.5;"/><line style="stroke:#000000;stroke-width:1.5;" x1="191" x2="321.6875" y1="230.1979" y2="230.1979"/><text fill="#000000" font-family="sans-serif" font-size="14" font-weight="bold" lengthAdjust="spacing" textLength="117.6875" x="195" y="222.0959">Neon framework</text></g><!--cluster Clients--><g id="cluster_Clients"><path d="M8.5,78.07 L58.5625,78.07 A3.75,3.75 0 0 1 61.0625,80.57 L68.0625,103.1379 L793.5,103.1379 A2.5,2.5 0 0 1 796,105.6379 L796,178.63 A2.5,2.5 0 0 1 793.5,181.13 L8.5,181.13 A2.5,2.5 0 0 1 6,178.63 L6,80.57 A2.5,2.5 0 0 1 8.5,78.07 " fill="none" style="stroke:#000000;stroke-width:1.5;"/><line style="stroke:#000000;stroke-width:1.5;" x1="6" x2="68.0625" y1="103.1379" y2="103.1379"/><text fill="#000000" font-family="sans-serif" font-size="14" font-weight="bold" lengthAdjust="spacing" textLength="49.0625" x="10" y="95.0359">Clients</text></g><!--cluster OpenAPI--><g id="cluster_OpenAPI"><path d="M629.5,205.13 L692.5625,205.13 A3.75,3.75 0 0 1 695.0625,207.63 L702.0625,230.1979 L927.5,230.1979 A2.5,2.5 0 0 1 930,232.6979 L930,305.7 A2.5,2.5 0 0 1 927.5,308.2 L629.5,308.2 A2.5,2.5 0 0 1 627,305.7 L627,207.63 A2.5,2.5 0 0 1 629.5,205.13 " fill="none" style="stroke:#000000;stroke-width:1.5;"/><line style="stroke:#000000;stroke-width:1.5;" x1="627" x2="702.0625" y1="230.1979" y2="230.1979"/><text fill="#000000" font-family="sans-serif" font-size="14" font-weight="bold" lengthAdjust="spacing" textLength="62.0625" x="631" y="222.0959">OpenAPI</text></g><!--entity neon_framework--><g id="elem_neon_framework"><rect fill="#F1F1F1" height="49.0679" rx="2.5" ry="2.5" style="stroke:#181818;stroke-width:0.5;" width="152" x="316" y="243.13"/><rect fill="#F1F1F1" height="10" style="stroke:#181818;stroke-width:0.5;" width="15" x="448" y="248.13"/><rect fill="#F1F1F1" height="2" style="stroke:#181818;stroke-width:0.5;" width="4" x="446" y="250.13"/><rect fill="#F1F1F1" height="2" style="stroke:#181818;stroke-width:0.5;" width="4" x="446" y="254.13"/><text fill="#000000" font-family="sans-serif" font-size="14" lengthAdjust="spacing" textLength="112" x="331" y="278.0959">neon_framework</text></g><!--entity nextcloud--><g id="elem_nextcloud"><rect fill="#F1F1F1" height="49.0679" rx="2.5" ry="2.5" style="stroke:#181818;stroke-width:0.5;" width="106" x="481" y="352.2"/><rect fill="#F1F1F1" height="10" style="stroke:#181818;stroke-width:0.5;" width="15" x="567" y="357.2"/><rect fill="#F1F1F1" height="2" style="stroke:#181818;stroke-width:0.5;" width="4" x="565" y="359.2"/><rect fill="#F1F1F1" height="2" style="stroke:#181818;stroke-width:0.5;" width="4" x="565" y="363.2"/><text fill="#000000" font-family="sans-serif" font-size="14" lengthAdjust="spacing" textLength="66" x="496" y="387.1659">nextcloud</text></g><!--entity sort_box--><g id="elem_sort_box"><rect fill="#F1F1F1" height="49.0679" rx="2.5" ry="2.5" style="stroke:#181818;stroke-width:0.5;" width="96" x="207" y="352.2"/><rect fill="#F1F1F1" height="10" style="stroke:#181818;stroke-width:0.5;" width="15" x="283" y="357.2"/><rect fill="#F1F1F1" height="2" style="stroke:#181818;stroke-width:0.5;" width="4" x="281" y="359.2"/><rect fill="#F1F1F1" height="2" style="stroke:#181818;stroke-width:0.5;" width="4" x="281" y="363.2"/><text fill="#000000" font-family="sans-serif" font-size="14" lengthAdjust="spacing" textLength="56" x="222" y="387.1659">sort_box</text></g><!--entity files_icons--><g id="elem_files_icons"><rect fill="#F1F1F1" height="49.0679" rx="2.5" ry="2.5" style="stroke:#181818;stroke-width:0.5;" width="109" x="337.5" y="352.2"/><rect fill="#F1F1F1" height="10" style="stroke:#181818;stroke-width:0.5;" width="15" x="426.5" y="357.2"/><rect fill="#F1F1F1" height="2" style="stroke:#181818;stroke-width:0.5;" width="4" x="424.5" y="359.2"/><rect fill="#F1F1F1" height="2" style="stroke:#181818;stroke-width:0.5;" width="4" x="424.5" y="363.2"/><text fill="#000000" font-family="sans-serif" font-size="14" lengthAdjust="spacing" textLength="69" x="352.5" y="387.1659">files_icons</text></g><!--entity dashboard_app--><g id="elem_dashboard_app"><rect fill="#F1F1F1" height="49.0679" rx="2.5" ry="2.5" style="stroke:#181818;stroke-width:0.5;" width="145" x="22.5" y="116.07"/><rect fill="#F1F1F1" height="10" style="stroke:#181818;stroke-width:0.5;" width="15" x="147.5" y="121.07"/><rect fill="#F1F1F1" height="2" style="stroke:#181818;stroke-width:0.5;" width="4" x="145.5" y="123.07"/><rect fill="#F1F1F1" height="2" style="stroke:#181818;stroke-width:0.5;" width="4" x="145.5" y="127.07"/><text fill="#000000" font-family="sans-serif" font-size="14" lengthAdjust="spacing" textLength="105" x="37.5" y="151.0359">dashboard_app</text></g><!--entity files_app--><g id="elem_files_app"><rect fill="#F1F1F1" height="49.0679" rx="2.5" ry="2.5" style="stroke:#181818;stroke-width:0.5;" width="100" x="203" y="116.07"/><rect fill="#F1F1F1" height="10" style="stroke:#181818;stroke-width:0.5;" width="15" x="283" y="121.07"/><rect fill="#F1F1F1" height="2" style="stroke:#181818;stroke-width:0.5;" width="4" x="281" y="123.07"/><rect fill="#F1F1F1" height="2" style="stroke:#181818;stroke-width:0.5;" width="4" x="281" y="127.07"/><text fill="#000000" font-family="sans-serif" font-size="14" lengthAdjust="spacing" textLength="60" x="218" y="151.0359">files_app</text></g><!--entity news_app--><g id="elem_news_app"><rect fill="#F1F1F1" height="49.0679" rx="2.5" ry="2.5" style="stroke:#181818;stroke-width:0.5;" width="107" x="338.5" y="116.07"/><rect fill="#F1F1F1" height="10" style="stroke:#181818;stroke-width:0.5;" width="15" x="425.5" y="121.07"/><rect fill="#F1F1F1" height="2" style="stroke:#181818;stroke-width:0.5;" width="4" x="423.5" y="123.07"/><rect fill="#F1F1F1" height="2" style="stroke:#181818;stroke-width:0.5;" width="4" x="423.5" y="127.07"/><text fill="#000000" font-family="sans-serif" font-size="14" lengthAdjust="spacing" textLength="67" x="353.5" y="151.0359">news_app</text></g><!--entity notes_app--><g id="elem_notes_app"><rect fill="#F1F1F1" height="49.0679" rx="2.5" ry="2.5" style="stroke:#181818;stroke-width:0.5;" width="109" x="480.5" y="116.07"/><rect fill="#F1F1F1" height="10" style="stroke:#181818;stroke-width:0.5;" width="15" x="569.5" y="121.07"/><rect fill="#F1F1F1" height="2" style="stroke:#181818;stroke-width:0.5;" width="4" x="567.5" y="123.07"/><rect fill="#F1F1F1" height="2" style="stroke:#181818;stroke-width:0.5;" width="4" x="567.5" y="127.07"/><text fill="#000000" font-family="sans-serif" font-size="14" lengthAdjust="spacing" textLength="69" x="495.5" y="151.0359">notes_app</text></g><!--entity notifications_app--><g id="elem_notifications_app"><rect fill="#F1F1F1" height="49.0679" rx="2.5" ry="2.5" style="stroke:#181818;stroke-width:0.5;" width="155" x="624.5" y="116.07"/><rect fill="#F1F1F1" height="10" style="stroke:#181818;stroke-width:0.5;" width="15" x="759.5" y="121.07"/><rect fill="#F1F1F1" height="2" style="stroke:#181818;stroke-width:0.5;" width="4" x="757.5" y="123.07"/><rect fill="#F1F1F1" height="2" style="stroke:#181818;stroke-width:0.5;" width="4" x="757.5" y="127.07"/><text fill="#000000" font-family="sans-serif" font-size="14" lengthAdjust="spacing" textLength="115" x="639.5" y="151.0359">notifications_app</text></g><!--entity dynamite--><g id="elem_dynamite"><rect fill="#F1F1F1" height="49.0679" rx="2.5" ry="2.5" style="stroke:#181818;stroke-width:0.5;" width="103" x="643.5" y="243.13"/><rect fill="#F1F1F1" height="10" style="stroke:#181818;stroke-width:0.5;" width="15" x="726.5" y="248.13"/><rect fill="#F1F1F1" height="2" style="stroke:#181818;stroke-width:0.5;" width="4" x="724.5" y="250.13"/><rect fill="#F1F1F1" height="2" style="stroke:#181818;stroke-width:0.5;" width="4" x="724.5" y="254.13"/><text fill="#000000" font-family="sans-serif" font-size="14" lengthAdjust="spacing" textLength="63" x="658.5" y="278.0959">dynamite</text></g><!--entity specifications--><g id="elem_specifications"><rect fill="#F1F1F1" height="49.0679" rx="2.5" ry="2.5" style="stroke:#181818;stroke-width:0.5;" width="132" x="782" y="243.13"/><rect fill="#F1F1F1" height="10" style="stroke:#181818;stroke-width:0.5;" width="15" x="894" y="248.13"/><rect fill="#F1F1F1" height="2" style="stroke:#181818;stroke-width:0.5;" width="4" x="892" y="250.13"/><rect fill="#F1F1F1" height="2" style="stroke:#181818;stroke-width:0.5;" width="4" x="892" y="254.13"/><text fill="#000000" font-family="sans-serif" font-size="14" lengthAdjust="spacing" textLength="92" x="797" y="278.0959">specifications</text></g><!--entity app--><g id="elem_app"><rect fill="#F1F1F1" height="49.0679" rx="2.5" ry="2.5" style="stroke:#181818;stroke-width:0.5;" width="66" x="359" y="7"/><rect fill="#F1F1F1" height="10" style="stroke:#181818;stroke-width:0.5;" width="15" x="405" y="12"/><rect fill="#F1F1F1" height="2" style="stroke:#181818;stroke-width:0.5;" width="4" x="403" y="14"/><rect fill="#F1F1F1" height="2" style="stroke:#181818;stroke-width:0.5;" width="4" x="403" y="18"/><text fill="#000000" font-family="sans-serif" font-size="14" lengthAdjust="spacing" textLength="26" x="374" y="41.9659">app</text></g><!--link app to dashboard_app--><g id="link_app_dashboard_app"><path d="M358.67,33.73 C316.54,36.32 242.56,44.46 185,70.07 C160.28,81.06 140.6953,96.1702 123.6853,111.5902 " fill="none" id="app-to-dashboard_app" style="stroke:#181818;stroke-width:1.0;stroke-dasharray:7.0,7.0;"/><polygon fill="#181818" points="119.24,115.62,128.5945,112.5389,122.9444,112.2618,123.2214,106.6118,119.24,115.62" style="stroke:#181818;stroke-width:1.0;"/></g><!--link app to files_app--><g id="link_app_files_app"><path d="M358.56,47.52 C346.25,53.72 332.51,61.47 321,70.07 C303.14,83.4 289.6058,96.9852 276.8258,111.3652 " fill="none" id="app-to-files_app" style="stroke:#181818;stroke-width:1.0;stroke-dasharray:7.0,7.0;"/><polygon fill="#181818" points="272.84,115.85,281.8086,111.78,276.1615,112.1127,275.8288,106.4656,272.84,115.85" style="stroke:#181818;stroke-width:1.0;"/></g><!--link app to news_app--><g id="link_app_news_app"><path d="M392,56.56 C392,74.19 392,92.04 392,109.65 " fill="none" id="app-to-news_app" style="stroke:#181818;stroke-width:1.0;stroke-dasharray:7.0,7.0;"/><polygon fill="#181818" points="392,115.65,396,106.65,392,110.65,388,106.65,392,115.65" style="stroke:#181818;stroke-width:1.0;"/></g><!--link app to notes_app--><g id="link_app_notes_app"><path d="M425.31,47.7 C437.61,53.92 451.37,61.64 463,70.07 C481.43,83.43 495.7136,96.9737 509.3136,111.2637 " fill="none" id="app-to-notes_app" style="stroke:#181818;stroke-width:1.0;stroke-dasharray:7.0,7.0;"/><polygon fill="#181818" points="513.45,115.61,510.1429,106.333,510.003,111.9881,504.3479,111.8482,513.45,115.61" style="stroke:#181818;stroke-width:1.0;"/></g><!--link app to notifications_app--><g id="link_app_notifications_app"><path d="M425.37,33.67 C468.81,36.19 546.33,44.25 607,70.07 C632.77,81.03 653.6004,96.27 671.6404,111.7 " fill="none" id="app-to-notifications_app" style="stroke:#181818;stroke-width:1.0;stroke-dasharray:7.0,7.0;"/><polygon fill="#181818" points="676.2,115.6,671.9605,106.7103,672.4003,112.35,666.7606,112.7898,676.2,115.6" style="stroke:#181818;stroke-width:1.0;"/></g><!--link dashboard_app to neon_framework--><g id="link_dashboard_app_neon_framework"><path d="M137.48,165.46 C152.31,173.41 169.2,182.04 185,189.13 C229.46,209.1 275.0948,226.3355 315.4948,240.6555 " fill="none" id="dashboard_app-to-neon_framework" style="stroke:#181818;stroke-width:1.0;"/><polygon fill="#181818" points="321.15,242.66,314.0035,235.883,316.4373,240.9896,311.3308,243.4234,321.15,242.66" style="stroke:#181818;stroke-width:1.0;"/></g><!--link files_app to neon_framework--><g id="link_files_app_neon_framework"><path d="M279.47,165.42 C304.21,187.67 336.4702,216.6962 361.1702,238.9262 " fill="none" id="files_app-to-neon_framework" style="stroke:#181818;stroke-width:1.0;"/><polygon fill="#181818" points="365.63,242.94,361.6162,233.9461,361.9135,239.5952,356.2645,239.8925,365.63,242.94" style="stroke:#181818;stroke-width:1.0;"/></g><!--link news_app to neon_framework--><g id="link_news_app_neon_framework"><path d="M392,165.42 C392,187.67 392,214.71 392,236.94 " fill="none" id="news_app-to-neon_framework" style="stroke:#181818;stroke-width:1.0;"/><polygon fill="#181818" points="392,242.94,396,233.94,392,237.94,388,233.94,392,242.94" style="stroke:#181818;stroke-width:1.0;"/></g><!--link notes_app to neon_framework--><g id="link_notes_app_neon_framework"><path d="M507.77,165.42 C482.32,187.67 449.0558,216.7593 423.6458,238.9893 " fill="none" id="notes_app-to-neon_framework" style="stroke:#181818;stroke-width:1.0;"/><polygon fill="#181818" points="419.13,242.94,428.5375,240.0246,422.8932,239.6478,423.2699,234.0035,419.13,242.94" style="stroke:#181818;stroke-width:1.0;"/></g><!--link notifications_app to neon_framework--><g id="link_notifications_app_neon_framework"><path d="M657.09,165.43 C641.43,173.38 623.61,182.01 607,189.13 C560.5,209.07 512.6675,226.4393 470.6575,240.7993 " fill="none" id="notifications_app-to-neon_framework" style="stroke:#181818;stroke-width:1.0;"/><polygon fill="#181818" points="464.98,242.74,474.79,243.6139,469.7112,241.1228,472.2024,236.044,464.98,242.74" style="stroke:#181818;stroke-width:1.0;"/></g><!--link neon_framework to nextcloud--><g id="link_neon_framework_nextcloud"><path d="M423.87,292.7 C447.25,310.33 474.0899,330.5569 497.4499,348.1769 " fill="none" id="neon_framework-to-nextcloud" style="stroke:#181818;stroke-width:1.0;"/><polygon fill="#181818" points="502.24,351.79,497.4635,343.1769,498.2482,348.7791,492.6461,349.5638,502.24,351.79" style="stroke:#181818;stroke-width:1.0;"/></g><!--link neon_framework to sort_box--><g id="link_neon_framework_sort_box"><path d="M361.25,292.7 C338.69,310.33 312.9071,330.4748 290.3671,348.0948 " fill="none" id="neon_framework-to-sort_box" style="stroke:#181818;stroke-width:1.0;"/><polygon fill="#181818" points="285.64,351.79,295.1941,349.3985,289.5792,348.7106,290.2671,343.0958,285.64,351.79" style="stroke:#181818;stroke-width:1.0;"/></g><!--link neon_framework to files_icons--><g id="link_neon_framework_files_icons"><path d="M392,292.7 C392,310.33 392,328.17 392,345.79 " fill="none" id="neon_framework-to-files_icons" style="stroke:#181818;stroke-width:1.0;"/><polygon fill="#181818" points="392,351.79,396,342.79,392,346.79,388,342.79,392,351.79" style="stroke:#181818;stroke-width:1.0;"/></g><!--link dynamite to nextcloud--><g id="link_dynamite_nextcloud"><path d="M658.87,292.7 C632.35,310.33 601.4958,330.847 575.0058,348.467 " fill="none" id="dynamite-to-nextcloud" style="stroke:#181818;stroke-width:1.0;"/><polygon fill="#181818" points="570.01,351.79,579.719,350.1361,574.1732,349.0209,575.2884,343.475,570.01,351.79" style="stroke:#181818;stroke-width:1.0;"/></g><!--link specifications to nextcloud--><g id="link_specifications_nextcloud"><path d="M810.58,292.62 C796.4,300.95 779.85,309.8 764,316.2 C705.49,339.85 640.6418,355.3147 593.2018,364.8747 " fill="none" id="specifications-to-nextcloud" style="stroke:#181818;stroke-width:1.0;"/><polygon fill="#181818" points="587.32,366.06,596.9328,368.2033,592.2215,365.0723,595.3525,360.3609,587.32,366.06" style="stroke:#181818;stroke-width:1.0;"/></g><!--SRC=[TP913e8m44NtSuh6FHp1nBXoezw0r39e0tGQMWF6U7UBiGLAOS7Yl-RF_vdHNDJyZcntHbAiwdYBFNNrZhs1kKzGgqcXiamvNWI-WeCL3JtBI3VKsU96GoHNia5JI47Am0T0-mp7HZfiriDBRXutubrPSAsJPcjTOP-KoUA6BYifk9KkrO_FarqqgiFrb4ZsKhoL5kFY6iLaDrfDRFG6zsDvle-QUNNgv9NG9WYXnqo96i32dMNPFbvZ69I2VcQI-V4RS9aazGXWAVpV-4DAm71D2JO_AV1BYIoNIudW5m00]--></g></svg>