<?xml version="1.0" encoding="us-ascii" standalone="no"?><svg xmlns="http://www.w3.org/2000/svg" xmlns:xlink="http://www.w3.org/1999/xlink" contentStyleType="text/css" height="424px" preserveAspectRatio="none" style="width:1004px;height:424px;background:#FFFFFF;" version="1.1" viewBox="0 0 1004 424" width="1004px" zoomAndPan="magnify"><defs/><g><!--cluster Neon framework--><g id="cluster_Neon framework"><path d="M255.5,205.13 L374.5,205.13 A3.75,3.75 0 0 1 377,207.63 L384,230.1979 L656.5,230.1979 A2.5,2.5 0 0 1 659,232.6979 L659,414.77 A2.5,2.5 0 0 1 656.5,417.27 L255.5,417.27 A2.5,2.5 0 0 1 253,414.77 L253,207.63 A2.5,2.5 0 0 1 255.5,205.13 " fill="none" style="stroke:#000000;stroke-width:1.5;"/><line style="stroke:#000000;stroke-width:1.5;" x1="253" x2="384" y1="230.1979" y2="230.1979"/><text fill="#000000" font-family="sans-serif" font-size="14" font-weight="bold" lengthAdjust="spacing" textLength="118" x="257" y="222.0959">Neon framework</text></g><!--cluster Clients--><g id="cluster_Clients"><path d="M8.5,78.07 L56.5,78.07 A3.75,3.75 0 0 1 59,80.57 L66,103.1379 L994.5,103.1379 A2.5,2.5 0 0 1 997,105.6379 L997,178.63 A2.5,2.5 0 0 1 994.5,181.13 L8.5,181.13 A2.5,2.5 0 0 1 6,178.63 L6,80.57 A2.5,2.5 0 0 1 8.5,78.07 " fill="none" style="stroke:#000000;stroke-width:1.5;"/><line style="stroke:#000000;stroke-width:1.5;" x1="6" x2="66" y1="103.1379" y2="103.1379"/><text fill="#000000" font-family="sans-serif" font-size="14" font-weight="bold" lengthAdjust="spacing" textLength="47" x="10" y="95.0359">Clients</text></g><!--cluster OpenAPI--><g id="cluster_OpenAPI"><path d="M685.5,205.13 L747.5,205.13 A3.75,3.75 0 0 1 750,207.63 L757,230.1979 L983.5,230.1979 A2.5,2.5 0 0 1 986,232.6979 L986,305.7 A2.5,2.5 0 0 1 983.5,308.2 L685.5,308.2 A2.5,2.5 0 0 1 683,305.7 L683,207.63 A2.5,2.5 0 0 1 685.5,205.13 " fill="none" style="stroke:#000000;stroke-width:1.5;"/><line style="stroke:#000000;stroke-width:1.5;" x1="683" x2="757" y1="230.1979" y2="230.1979"/><text fill="#000000" font-family="sans-serif" font-size="14" font-weight="bold" lengthAdjust="spacing" textLength="61" x="687" y="222.0959">OpenAPI</text></g><!--entity neon_framework--><g id="elem_neon_framework"><rect fill="#F1F1F1" height="49.0679" rx="2.5" ry="2.5" style="stroke:#181818;stroke-width:0.5;" width="152" x="375" y="243.13"/><rect fill="#F1F1F1" height="10" style="stroke:#181818;stroke-width:0.5;" width="15" x="507" y="248.13"/><rect fill="#F1F1F1" height="2" style="stroke:#181818;stroke-width:0.5;" width="4" x="505" y="250.13"/><rect fill="#F1F1F1" height="2" style="stroke:#181818;stroke-width:0.5;" width="4" x="505" y="254.13"/><text fill="#000000" font-family="sans-serif" font-size="14" lengthAdjust="spacing" textLength="112" x="390" y="278.0959">neon_framework</text></g><!--entity nextcloud--><g id="elem_nextcloud"><rect fill="#F1F1F1" height="49.0679" rx="2.5" ry="2.5" style="stroke:#181818;stroke-width:0.5;" width="106" x="537" y="352.2"/><rect fill="#F1F1F1" height="10" style="stroke:#181818;stroke-width:0.5;" width="15" x="623" y="357.2"/><rect fill="#F1F1F1" height="2" style="stroke:#181818;stroke-width:0.5;" width="4" x="621" y="359.2"/><rect fill="#F1F1F1" height="2" style="stroke:#181818;stroke-width:0.5;" width="4" x="621" y="363.2"/><text fill="#000000" font-family="sans-serif" font-size="14" lengthAdjust="spacing" textLength="66" x="552" y="387.1659">nextcloud</text></g><!--entity sort_box--><g id="elem_sort_box"><rect fill="#F1F1F1" height="49.0679" rx="2.5" ry="2.5" style="stroke:#181818;stroke-width:0.5;" width="96" x="269" y="352.2"/><rect fill="#F1F1F1" height="10" style="stroke:#181818;stroke-width:0.5;" width="15" x="345" y="357.2"/><rect fill="#F1F1F1" height="2" style="stroke:#181818;stroke-width:0.5;" width="4" x="343" y="359.2"/><rect fill="#F1F1F1" height="2" style="stroke:#181818;stroke-width:0.5;" width="4" x="343" y="363.2"/><text fill="#000000" font-family="sans-serif" font-size="14" lengthAdjust="spacing" textLength="56" x="284" y="387.1659">sort_box</text></g><!--entity file_icons--><g id="elem_file_icons"><rect fill="#F1F1F1" height="49.0679" rx="2.5" ry="2.5" style="stroke:#181818;stroke-width:0.5;" width="102" x="400" y="352.2"/><rect fill="#F1F1F1" height="10" style="stroke:#181818;stroke-width:0.5;" width="15" x="482" y="357.2"/><rect fill="#F1F1F1" height="2" style="stroke:#181818;stroke-width:0.5;" width="4" x="480" y="359.2"/><rect fill="#F1F1F1" height="2" style="stroke:#181818;stroke-width:0.5;" width="4" x="480" y="363.2"/><text fill="#000000" font-family="sans-serif" font-size="14" lengthAdjust="spacing" textLength="62" x="415" y="387.1659">file_icons</text></g><!--entity neon_dashboard--><g id="elem_neon_dashboard"><rect fill="#F1F1F1" height="49.0679" rx="2.5" ry="2.5" style="stroke:#181818;stroke-width:0.5;" width="153" x="827.5" y="116.07"/><rect fill="#F1F1F1" height="10" style="stroke:#181818;stroke-width:0.5;" width="15" x="960.5" y="121.07"/><rect fill="#F1F1F1" height="2" style="stroke:#181818;stroke-width:0.5;" width="4" x="958.5" y="123.07"/><rect fill="#F1F1F1" height="2" style="stroke:#181818;stroke-width:0.5;" width="4" x="958.5" y="127.07"/><text fill="#000000" font-family="sans-serif" font-size="14" lengthAdjust="spacing" textLength="113" x="842.5" y="151.0359">neon_dashboard</text></g><!--entity neon_files--><g id="elem_neon_files"><rect fill="#F1F1F1" height="49.0679" rx="2.5" ry="2.5" style="stroke:#181818;stroke-width:0.5;" width="108" x="684" y="116.07"/><rect fill="#F1F1F1" height="10" style="stroke:#181818;stroke-width:0.5;" width="15" x="772" y="121.07"/><rect fill="#F1F1F1" height="2" style="stroke:#181818;stroke-width:0.5;" width="4" x="770" y="123.07"/><rect fill="#F1F1F1" height="2" style="stroke:#181818;stroke-width:0.5;" width="4" x="770" y="127.07"/><text fill="#000000" font-family="sans-serif" font-size="14" lengthAdjust="spacing" textLength="68" x="699" y="151.0359">neon_files</text></g><!--entity neon_news--><g id="elem_neon_news"><rect fill="#F1F1F1" height="49.0679" rx="2.5" ry="2.5" style="stroke:#181818;stroke-width:0.5;" width="115" x="534.5" y="116.07"/><rect fill="#F1F1F1" height="10" style="stroke:#181818;stroke-width:0.5;" width="15" x="629.5" y="121.07"/><rect fill="#F1F1F1" height="2" style="stroke:#181818;stroke-width:0.5;" width="4" x="627.5" y="123.07"/><rect fill="#F1F1F1" height="2" style="stroke:#181818;stroke-width:0.5;" width="4" x="627.5" y="127.07"/><text fill="#000000" font-family="sans-serif" font-size="14" lengthAdjust="spacing" textLength="75" x="549.5" y="151.0359">neon_news</text></g><!--entity neon_notes--><g id="elem_neon_notes"><rect fill="#F1F1F1" height="49.0679" rx="2.5" ry="2.5" style="stroke:#181818;stroke-width:0.5;" width="117" x="382.5" y="116.07"/><rect fill="#F1F1F1" height="10" style="stroke:#181818;stroke-width:0.5;" width="15" x="479.5" y="121.07"/><rect fill="#F1F1F1" height="2" style="stroke:#181818;stroke-width:0.5;" width="4" x="477.5" y="123.07"/><rect fill="#F1F1F1" height="2" style="stroke:#181818;stroke-width:0.5;" width="4" x="477.5" y="127.07"/><text fill="#000000" font-family="sans-serif" font-size="14" lengthAdjust="spacing" textLength="77" x="397.5" y="151.0359">neon_notes</text></g><!--entity neon_notifications--><g id="elem_neon_notifications"><rect fill="#F1F1F1" height="49.0679" rx="2.5" ry="2.5" style="stroke:#181818;stroke-width:0.5;" width="163" x="184.5" y="116.07"/><rect fill="#F1F1F1" height="10" style="stroke:#181818;stroke-width:0.5;" width="15" x="327.5" y="121.07"/><rect fill="#F1F1F1" height="2" style="stroke:#181818;stroke-width:0.5;" width="4" x="325.5" y="123.07"/><rect fill="#F1F1F1" height="2" style="stroke:#181818;stroke-width:0.5;" width="4" x="325.5" y="127.07"/><text fill="#000000" font-family="sans-serif" font-size="14" lengthAdjust="spacing" textLength="123" x="199.5" y="151.0359">neon_notifications</text></g><!--entity neon_spreed--><g id="elem_neon_spreed"><rect fill="#F1F1F1" height="49.0679" rx="2.5" ry="2.5" style="stroke:#181818;stroke-width:0.5;" width="127" x="22.5" y="116.07"/><rect fill="#F1F1F1" height="10" style="stroke:#181818;stroke-width:0.5;" width="15" x="129.5" y="121.07"/><rect fill="#F1F1F1" height="2" style="stroke:#181818;stroke-width:0.5;" width="4" x="127.5" y="123.07"/><rect fill="#F1F1F1" height="2" style="stroke:#181818;stroke-width:0.5;" width="4" x="127.5" y="127.07"/><text fill="#000000" font-family="sans-serif" font-size="14" lengthAdjust="spacing" textLength="87" x="37.5" y="151.0359">neon_spreed</text></g><!--entity dynamite--><g id="elem_dynamite"><rect fill="#F1F1F1" height="49.0679" rx="2.5" ry="2.5" style="stroke:#181818;stroke-width:0.5;" width="103" x="866.5" y="243.13"/><rect fill="#F1F1F1" height="10" style="stroke:#181818;stroke-width:0.5;" width="15" x="949.5" y="248.13"/><rect fill="#F1F1F1" height="2" style="stroke:#181818;stroke-width:0.5;" width="4" x="947.5" y="250.13"/><rect fill="#F1F1F1" height="2" style="stroke:#181818;stroke-width:0.5;" width="4" x="947.5" y="254.13"/><text fill="#000000" font-family="sans-serif" font-size="14" lengthAdjust="spacing" textLength="63" x="881.5" y="278.0959">dynamite</text></g><!--entity specifications--><g id="elem_specifications"><rect fill="#F1F1F1" height="49.0679" rx="2.5" ry="2.5" style="stroke:#181818;stroke-width:0.5;" width="132" x="699" y="243.13"/><rect fill="#F1F1F1" height="10" style="stroke:#181818;stroke-width:0.5;" width="15" x="811" y="248.13"/><rect fill="#F1F1F1" height="2" style="stroke:#181818;stroke-width:0.5;" width="4" x="809" y="250.13"/><rect fill="#F1F1F1" height="2" style="stroke:#181818;stroke-width:0.5;" width="4" x="809" y="254.13"/><text fill="#000000" font-family="sans-serif" font-size="14" lengthAdjust="spacing" textLength="92" x="714" y="278.0959">specifications</text></g><!--entity app--><g id="elem_app"><rect fill="#F1F1F1" height="49.0679" rx="2.5" ry="2.5" style="stroke:#181818;stroke-width:0.5;" width="66" x="483" y="7"/><rect fill="#F1F1F1" height="10" style="stroke:#181818;stroke-width:0.5;" width="15" x="529" y="12"/><rect fill="#F1F1F1" height="2" style="stroke:#181818;stroke-width:0.5;" width="4" x="527" y="14"/><rect fill="#F1F1F1" height="2" style="stroke:#181818;stroke-width:0.5;" width="4" x="527" y="18"/><text fill="#000000" font-family="sans-serif" font-size="14" lengthAdjust="spacing" textLength="26" x="498" y="41.9659">app</text></g><!--link app to neon_dashboard--><g id="link_app_neon_dashboard"><path d="M549.42,34.67 C616.1,39.29 763.27,51.3 810,70.07 C836.18,80.58 857.1515,96.2097 874.9515,111.9197 " fill="none" id="app-to-neon_dashboard" style="stroke:#181818;stroke-width:1.0;stroke-dasharray:7.0,7.0;"/><polygon fill="#181818" points="879.45,115.89,875.3491,106.9355,875.7012,112.5814,870.0554,112.9335,879.45,115.89" style="stroke:#181818;stroke-width:1.0;"/></g><!--link app to neon_files--><g id="link_app_neon_files"><path d="M549.36,35.71 C581.26,39.9 629.85,49.32 667,70.07 C687.49,81.51 702.3261,95.8723 715.4161,111.0823 " fill="none" id="app-to-neon_files" style="stroke:#181818;stroke-width:1.0;stroke-dasharray:7.0,7.0;"/><polygon fill="#181818" points="719.33,115.63,716.491,106.1992,716.0685,111.8402,710.4274,111.4177,719.33,115.63" style="stroke:#181818;stroke-width:1.0;"/></g><!--link app to neon_news--><g id="link_app_neon_news"><path d="M533.06,56.56 C545.57,74.19 559.027,93.1473 571.527,110.7573 " fill="none" id="app-to-neon_news" style="stroke:#181818;stroke-width:1.0;stroke-dasharray:7.0,7.0;"/><polygon fill="#181818" points="575,115.65,573.0524,105.9956,572.1059,111.5727,566.5288,110.6262,575,115.65" style="stroke:#181818;stroke-width:1.0;"/></g><!--link app to neon_notes--><g id="link_app_neon_notes"><path d="M499.17,56.56 C486.82,74.19 473.5513,93.125 461.2213,110.735 " fill="none" id="app-to-neon_notes" style="stroke:#181818;stroke-width:1.0;stroke-dasharray:7.0,7.0;"/><polygon fill="#181818" points="457.78,115.65,466.2187,110.5717,460.6478,111.5542,459.6653,105.9833,457.78,115.65" style="stroke:#181818;stroke-width:1.0;"/></g><!--link app to neon_notifications--><g id="link_app_neon_notifications"><path d="M482.73,37.18 C451.33,42.4 403.46,52.52 365,70.07 C339.2,81.83 317.7778,96.7976 298.8478,111.8376 " fill="none" id="app-to-neon_notifications" style="stroke:#181818;stroke-width:1.0;stroke-dasharray:7.0,7.0;"/><polygon fill="#181818" points="294.15,115.57,303.6849,113.1032,298.0648,112.4597,298.7084,106.8395,294.15,115.57" style="stroke:#181818;stroke-width:1.0;"/></g><!--link app to neon_spreed--><g id="link_app_neon_spreed"><path d="M482.66,33.61 C406.76,36.46 223.28,45.72 167,70.07 C143.36,80.29 125.6454,95.5628 110.6154,111.3628 " fill="none" id="app-to-neon_spreed" style="stroke:#181818;stroke-width:1.0;stroke-dasharray:7.0,7.0;"/><polygon fill="#181818" points="106.48,115.71,115.5812,111.9461,109.9262,112.0873,109.7849,106.4322,106.48,115.71" style="stroke:#181818;stroke-width:1.0;"/></g><!--link neon_dashboard to neon_framework--><g id="link_neon_dashboard_neon_framework"><path d="M865.64,165.45 C849.13,174.51 829.23,183.9 810,189.13 C755.43,203.98 738.67,187.17 683,197.13 C625.67,207.39 568.1457,224.9541 522.2057,240.7041 " fill="none" id="neon_dashboard-to-neon_framework" style="stroke:#181818;stroke-width:1.0;"/><polygon fill="#181818" points="516.53,242.65,526.3408,243.515,521.2598,241.0285,523.7463,235.9474,516.53,242.65" style="stroke:#181818;stroke-width:1.0;"/></g><!--link neon_files to neon_framework--><g id="link_neon_files_neon_framework"><path d="M705.79,165.6 C693.97,173.74 680.24,182.45 667,189.13 C622.36,211.66 575.2809,228.89 533.0709,242.49 " fill="none" id="neon_files-to-neon_framework" style="stroke:#181818;stroke-width:1.0;"/><polygon fill="#181818" points="527.36,244.33,537.153,245.3772,532.1191,242.7966,534.6996,237.7627,527.36,244.33" style="stroke:#181818;stroke-width:1.0;"/></g><!--link neon_news to neon_framework--><g id="link_neon_news_neon_framework"><path d="M565.15,165.42 C540.06,187.67 507.2985,216.7284 482.2385,238.9584 " fill="none" id="neon_news-to-neon_framework" style="stroke:#181818;stroke-width:1.0;"/><polygon fill="#181818" points="477.75,242.94,487.1372,239.9599,481.4904,239.622,481.8283,233.9752,477.75,242.94" style="stroke:#181818;stroke-width:1.0;"/></g><!--link neon_notes to neon_framework--><g id="link_neon_notes_neon_framework"><path d="M442.9,165.42 C444.68,187.67 446.8538,214.7289 448.6238,236.9589 " fill="none" id="neon_notes-to-neon_framework" style="stroke:#181818;stroke-width:1.0;"/><polygon fill="#181818" points="449.1,242.94,452.373,233.6509,448.7031,237.9558,444.3983,234.2859,449.1,242.94" style="stroke:#181818;stroke-width:1.0;"/></g><!--link neon_notifications to neon_framework--><g id="link_neon_notifications_neon_framework"><path d="M301.23,165.42 C334.05,187.6 377.7399,217.1387 410.6099,239.3687 " fill="none" id="neon_notifications-to-neon_framework" style="stroke:#181818;stroke-width:1.0;"/><polygon fill="#181818" points="415.58,242.73,410.3657,234.3747,411.4383,239.9289,405.884,241.0015,415.58,242.73" style="stroke:#181818;stroke-width:1.0;"/></g><!--link neon_spreed to neon_framework--><g id="link_neon_spreed_neon_framework"><path d="M122.03,165.5 C135.7,173.82 151.67,182.68 167,189.13 C234.95,217.75 310.6313,237.4356 368.8813,250.3056 " fill="none" id="neon_spreed-to-neon_framework" style="stroke:#181818;stroke-width:1.0;"/><polygon fill="#181818" points="374.74,251.6,366.8149,245.7525,369.8577,250.5213,365.089,253.5641,374.74,251.6" style="stroke:#181818;stroke-width:1.0;"/></g><!--link neon_framework to nextcloud--><g id="link_neon_framework_nextcloud"><path d="M482.19,292.7 C505.09,310.33 531.287,330.5081 554.157,348.1281 " fill="none" id="neon_framework-to-nextcloud" style="stroke:#181818;stroke-width:1.0;"/><polygon fill="#181818" points="558.91,351.79,554.2218,343.1285,554.9492,348.7384,549.3393,349.4658,558.91,351.79" style="stroke:#181818;stroke-width:1.0;"/></g><!--link neon_framework to sort_box--><g id="link_neon_framework_sort_box"><path d="M420.93,292.7 C398.86,310.33 373.7073,330.4244 351.6573,348.0444 " fill="none" id="neon_framework-to-sort_box" style="stroke:#181818;stroke-width:1.0;"/><polygon fill="#181818" points="346.97,351.79,356.498,349.2965,350.8761,348.6687,351.5039,343.0468,346.97,351.79" style="stroke:#181818;stroke-width:1.0;"/></g><!--link neon_framework to file_icons--><g id="link_neon_framework_file_icons"><path d="M451,292.7 C451,310.33 451,328.17 451,345.79 " fill="none" id="neon_framework-to-file_icons" style="stroke:#181818;stroke-width:1.0;"/><polygon fill="#181818" points="451,351.79,455,342.79,451,346.79,447,342.79,451,351.79" style="stroke:#181818;stroke-width:1.0;"/></g><!--link dynamite to nextcloud--><g id="link_dynamite_nextcloud"><path d="M888.08,292.58 C876.18,301.1 862,310.09 848,316.2 C780.7,345.59 702.8672,360.6141 649.3872,368.4141 " fill="none" id="dynamite-to-nextcloud" style="stroke:#181818;stroke-width:1.0;"/><polygon fill="#181818" points="643.45,369.28,652.9331,371.9392,648.3977,368.5584,651.7785,364.023,643.45,369.28" style="stroke:#181818;stroke-width:1.0;"/></g><!--link specifications to nextcloud--><g id="link_specifications_nextcloud"><path d="M725.73,292.7 C696.91,310.33 663.0476,331.0379 634.2576,348.6579 " fill="none" id="specifications-to-nextcloud" style="stroke:#181818;stroke-width:1.0;"/><polygon fill="#181818" points="629.14,351.79,638.9045,350.5036,633.4047,349.1799,634.7284,343.6801,629.14,351.79" style="stroke:#181818;stroke-width:1.0;"/></g><!--SRC=[VP9D3i8W48Ntd8AujqSmCQxSg3Te4APAsZ84CDKOxoxL_e5W5rsyRpBp7ZEQyPfTWAuEW8fMXhNGeQbNz4ce_pYs6XKeHvNdvSH_uDtn1cyYqYqQLvxn7icLRA2K79KbBqBqQ67NI4zjPhPWzdf6PaJIcEzeKq11bzRHGGx8IdBcP6ylKM2r0H21yQC6jJtjVusBXsAjT10_YmQ-6E9RpOnfJOZ_qQBOnC43-Hiva3vXG-KJCvOMimCqH2FXMBfUR-Brpmwoj3UJXxslVtIscAtwkatX8S4a33NZZIRWTAW9jhXMCYuqwXWkD89l]--></g></svg>