<?xml version="1.0" encoding="us-ascii" standalone="no"?><svg xmlns="http://www.w3.org/2000/svg" xmlns:xlink="http://www.w3.org/1999/xlink" contentStyleType="text/css" height="424px" preserveAspectRatio="none" style="width:842px;height:424px;background:#FFFFFF;" version="1.1" viewBox="0 0 842 424" width="842px" zoomAndPan="magnify"><defs/><g><!--cluster Neon framework--><g id="cluster_Neon framework"><path d="M93.5,205.13 L212.5,205.13 A3.75,3.75 0 0 1 215,207.63 L222,230.1979 L494.5,230.1979 A2.5,2.5 0 0 1 497,232.6979 L497,414.77 A2.5,2.5 0 0 1 494.5,417.27 L93.5,417.27 A2.5,2.5 0 0 1 91,414.77 L91,207.63 A2.5,2.5 0 0 1 93.5,205.13 " fill="none" style="stroke:#000000;stroke-width:1.5;"/><line style="stroke:#000000;stroke-width:1.5;" x1="91" x2="222" y1="230.1979" y2="230.1979"/><text fill="#000000" font-family="sans-serif" font-size="14" font-weight="bold" lengthAdjust="spacing" textLength="118" x="95" y="222.0959">Neon framework</text></g><!--cluster Clients--><g id="cluster_Clients"><path d="M8.5,78.07 L56.5,78.07 A3.75,3.75 0 0 1 59,80.57 L66,103.1379 L832.5,103.1379 A2.5,2.5 0 0 1 835,105.6379 L835,178.63 A2.5,2.5 0 0 1 832.5,181.13 L8.5,181.13 A2.5,2.5 0 0 1 6,178.63 L6,80.57 A2.5,2.5 0 0 1 8.5,78.07 " fill="none" style="stroke:#000000;stroke-width:1.5;"/><line style="stroke:#000000;stroke-width:1.5;" x1="6" x2="66" y1="103.1379" y2="103.1379"/><text fill="#000000" font-family="sans-serif" font-size="14" font-weight="bold" lengthAdjust="spacing" textLength="47" x="10" y="95.0359">Clients</text></g><!--cluster OpenAPI--><g id="cluster_OpenAPI"><path d="M523.5,205.13 L585.5,205.13 A3.75,3.75 0 0 1 588,207.63 L595,230.1979 L821.5,230.1979 A2.5,2.5 0 0 1 824,232.6979 L824,305.7 A2.5,2.5 0 0 1 821.5,308.2 L523.5,308.2 A2.5,2.5 0 0 1 521,305.7 L521,207.63 A2.5,2.5 0 0 1 523.5,205.13 " fill="none" style="stroke:#000000;stroke-width:1.5;"/><line style="stroke:#000000;stroke-width:1.5;" x1="521" x2="595" y1="230.1979" y2="230.1979"/><text fill="#000000" font-family="sans-serif" font-size="14" font-weight="bold" lengthAdjust="spacing" textLength="61" x="525" y="222.0959">OpenAPI</text></g><!--entity neon--><g id="elem_neon"><rect fill="#F1F1F1" height="49.0679" rx="2.5" ry="2.5" style="stroke:#181818;stroke-width:0.5;" width="74" x="252" y="243.13"/><rect fill="#F1F1F1" height="10" style="stroke:#181818;stroke-width:0.5;" width="15" x="306" y="248.13"/><rect fill="#F1F1F1" height="2" style="stroke:#181818;stroke-width:0.5;" width="4" x="304" y="250.13"/><rect fill="#F1F1F1" height="2" style="stroke:#181818;stroke-width:0.5;" width="4" x="304" y="254.13"/><text fill="#000000" font-family="sans-serif" font-size="14" lengthAdjust="spacing" textLength="34" x="267" y="278.0959">neon</text></g><!--entity nextcloud--><g id="elem_nextcloud"><rect fill="#F1F1F1" height="49.0679" rx="2.5" ry="2.5" style="stroke:#181818;stroke-width:0.5;" width="106" x="375" y="352.2"/><rect fill="#F1F1F1" height="10" style="stroke:#181818;stroke-width:0.5;" width="15" x="461" y="357.2"/><rect fill="#F1F1F1" height="2" style="stroke:#181818;stroke-width:0.5;" width="4" x="459" y="359.2"/><rect fill="#F1F1F1" height="2" style="stroke:#181818;stroke-width:0.5;" width="4" x="459" y="363.2"/><text fill="#000000" font-family="sans-serif" font-size="14" lengthAdjust="spacing" textLength="66" x="390" y="387.1659">nextcloud</text></g><!--entity sort_box--><g id="elem_sort_box"><rect fill="#F1F1F1" height="49.0679" rx="2.5" ry="2.5" style="stroke:#181818;stroke-width:0.5;" width="96" x="107" y="352.2"/><rect fill="#F1F1F1" height="10" style="stroke:#181818;stroke-width:0.5;" width="15" x="183" y="357.2"/><rect fill="#F1F1F1" height="2" style="stroke:#181818;stroke-width:0.5;" width="4" x="181" y="359.2"/><rect fill="#F1F1F1" height="2" style="stroke:#181818;stroke-width:0.5;" width="4" x="181" y="363.2"/><text fill="#000000" font-family="sans-serif" font-size="14" lengthAdjust="spacing" textLength="56" x="122" y="387.1659">sort_box</text></g><!--entity file_icons--><g id="elem_file_icons"><rect fill="#F1F1F1" height="49.0679" rx="2.5" ry="2.5" style="stroke:#181818;stroke-width:0.5;" width="102" x="238" y="352.2"/><rect fill="#F1F1F1" height="10" style="stroke:#181818;stroke-width:0.5;" width="15" x="320" y="357.2"/><rect fill="#F1F1F1" height="2" style="stroke:#181818;stroke-width:0.5;" width="4" x="318" y="359.2"/><rect fill="#F1F1F1" height="2" style="stroke:#181818;stroke-width:0.5;" width="4" x="318" y="363.2"/><text fill="#000000" font-family="sans-serif" font-size="14" lengthAdjust="spacing" textLength="62" x="253" y="387.1659">file_icons</text></g><!--entity neon_dashboard--><g id="elem_neon_dashboard"><rect fill="#F1F1F1" height="49.0679" rx="2.5" ry="2.5" style="stroke:#181818;stroke-width:0.5;" width="153" x="665.5" y="116.07"/><rect fill="#F1F1F1" height="10" style="stroke:#181818;stroke-width:0.5;" width="15" x="798.5" y="121.07"/><rect fill="#F1F1F1" height="2" style="stroke:#181818;stroke-width:0.5;" width="4" x="796.5" y="123.07"/><rect fill="#F1F1F1" height="2" style="stroke:#181818;stroke-width:0.5;" width="4" x="796.5" y="127.07"/><text fill="#000000" font-family="sans-serif" font-size="14" lengthAdjust="spacing" textLength="113" x="680.5" y="151.0359">neon_dashboard</text></g><!--entity neon_files--><g id="elem_neon_files"><rect fill="#F1F1F1" height="49.0679" rx="2.5" ry="2.5" style="stroke:#181818;stroke-width:0.5;" width="108" x="522" y="116.07"/><rect fill="#F1F1F1" height="10" style="stroke:#181818;stroke-width:0.5;" width="15" x="610" y="121.07"/><rect fill="#F1F1F1" height="2" style="stroke:#181818;stroke-width:0.5;" width="4" x="608" y="123.07"/><rect fill="#F1F1F1" height="2" style="stroke:#181818;stroke-width:0.5;" width="4" x="608" y="127.07"/><text fill="#000000" font-family="sans-serif" font-size="14" lengthAdjust="spacing" textLength="68" x="537" y="151.0359">neon_files</text></g><!--entity neon_news--><g id="elem_neon_news"><rect fill="#F1F1F1" height="49.0679" rx="2.5" ry="2.5" style="stroke:#181818;stroke-width:0.5;" width="115" x="372.5" y="116.07"/><rect fill="#F1F1F1" height="10" style="stroke:#181818;stroke-width:0.5;" width="15" x="467.5" y="121.07"/><rect fill="#F1F1F1" height="2" style="stroke:#181818;stroke-width:0.5;" width="4" x="465.5" y="123.07"/><rect fill="#F1F1F1" height="2" style="stroke:#181818;stroke-width:0.5;" width="4" x="465.5" y="127.07"/><text fill="#000000" font-family="sans-serif" font-size="14" lengthAdjust="spacing" textLength="75" x="387.5" y="151.0359">neon_news</text></g><!--entity neon_notes--><g id="elem_neon_notes"><rect fill="#F1F1F1" height="49.0679" rx="2.5" ry="2.5" style="stroke:#181818;stroke-width:0.5;" width="117" x="220.5" y="116.07"/><rect fill="#F1F1F1" height="10" style="stroke:#181818;stroke-width:0.5;" width="15" x="317.5" y="121.07"/><rect fill="#F1F1F1" height="2" style="stroke:#181818;stroke-width:0.5;" width="4" x="315.5" y="123.07"/><rect fill="#F1F1F1" height="2" style="stroke:#181818;stroke-width:0.5;" width="4" x="315.5" y="127.07"/><text fill="#000000" font-family="sans-serif" font-size="14" lengthAdjust="spacing" textLength="77" x="235.5" y="151.0359">neon_notes</text></g><!--entity neon_notifications--><g id="elem_neon_notifications"><rect fill="#F1F1F1" height="49.0679" rx="2.5" ry="2.5" style="stroke:#181818;stroke-width:0.5;" width="163" x="22.5" y="116.07"/><rect fill="#F1F1F1" height="10" style="stroke:#181818;stroke-width:0.5;" width="15" x="165.5" y="121.07"/><rect fill="#F1F1F1" height="2" style="stroke:#181818;stroke-width:0.5;" width="4" x="163.5" y="123.07"/><rect fill="#F1F1F1" height="2" style="stroke:#181818;stroke-width:0.5;" width="4" x="163.5" y="127.07"/><text fill="#000000" font-family="sans-serif" font-size="14" lengthAdjust="spacing" textLength="123" x="37.5" y="151.0359">neon_notifications</text></g><!--entity dynamite--><g id="elem_dynamite"><rect fill="#F1F1F1" height="49.0679" rx="2.5" ry="2.5" style="stroke:#181818;stroke-width:0.5;" width="103" x="704.5" y="243.13"/><rect fill="#F1F1F1" height="10" style="stroke:#181818;stroke-width:0.5;" width="15" x="787.5" y="248.13"/><rect fill="#F1F1F1" height="2" style="stroke:#181818;stroke-width:0.5;" width="4" x="785.5" y="250.13"/><rect fill="#F1F1F1" height="2" style="stroke:#181818;stroke-width:0.5;" width="4" x="785.5" y="254.13"/><text fill="#000000" font-family="sans-serif" font-size="14" lengthAdjust="spacing" textLength="63" x="719.5" y="278.0959">dynamite</text></g><!--entity specifications--><g id="elem_specifications"><rect fill="#F1F1F1" height="49.0679" rx="2.5" ry="2.5" style="stroke:#181818;stroke-width:0.5;" width="132" x="537" y="243.13"/><rect fill="#F1F1F1" height="10" style="stroke:#181818;stroke-width:0.5;" width="15" x="649" y="248.13"/><rect fill="#F1F1F1" height="2" style="stroke:#181818;stroke-width:0.5;" width="4" x="647" y="250.13"/><rect fill="#F1F1F1" height="2" style="stroke:#181818;stroke-width:0.5;" width="4" x="647" y="254.13"/><text fill="#000000" font-family="sans-serif" font-size="14" lengthAdjust="spacing" textLength="92" x="552" y="278.0959">specifications</text></g><!--entity app--><g id="elem_app"><rect fill="#F1F1F1" height="49.0679" rx="2.5" ry="2.5" style="stroke:#181818;stroke-width:0.5;" width="66" x="397" y="7"/><rect fill="#F1F1F1" height="10" style="stroke:#181818;stroke-width:0.5;" width="15" x="443" y="12"/><rect fill="#F1F1F1" height="2" style="stroke:#181818;stroke-width:0.5;" width="4" x="441" y="14"/><rect fill="#F1F1F1" height="2" style="stroke:#181818;stroke-width:0.5;" width="4" x="441" y="18"/><text fill="#000000" font-family="sans-serif" font-size="14" lengthAdjust="spacing" textLength="26" x="412" y="41.9659">app</text></g><!--link app to neon_dashboard--><g id="link_app_neon_dashboard"><path d="M463.48,33.52 C507.47,35.87 586.37,43.74 648,70.07 C673.57,80.99 694.1643,96.2123 711.9943,111.6523 " fill="none" id="app-to-neon_dashboard" style="stroke:#181818;stroke-width:1.0;stroke-dasharray:7.0,7.0;"/><polygon fill="#181818" points="716.53,115.58,712.3449,106.6646,712.7502,112.3069,707.1079,112.7122,716.53,115.58" style="stroke:#181818;stroke-width:1.0;"/></g><!--link app to neon_files--><g id="link_app_neon_files"><path d="M463.38,46.51 C476.85,52.83 492.2,60.94 505,70.07 C523.54,83.29 537.759,96.9616 551.129,111.3716 " fill="none" id="app-to-neon_files" style="stroke:#181818;stroke-width:1.0;stroke-dasharray:7.0,7.0;"/><polygon fill="#181818" points="555.21,115.77,552.0208,106.4518,551.8092,112.1047,546.1563,111.893,555.21,115.77" style="stroke:#181818;stroke-width:1.0;"/></g><!--link app to neon_news--><g id="link_app_neon_news"><path d="M430,56.56 C430,74.19 430,92.04 430,109.65 " fill="none" id="app-to-neon_news" style="stroke:#181818;stroke-width:1.0;stroke-dasharray:7.0,7.0;"/><polygon fill="#181818" points="430,115.65,434,106.65,430,110.65,426,106.65,430,115.65" style="stroke:#181818;stroke-width:1.0;"/></g><!--link app to neon_notes--><g id="link_app_neon_notes"><path d="M396.77,46.73 C383.33,53.08 367.96,61.15 355,70.07 C335.55,83.44 320.2,97.2747 305.78,111.6447 " fill="none" id="app-to-neon_notes" style="stroke:#181818;stroke-width:1.0;stroke-dasharray:7.0,7.0;"/><polygon fill="#181818" points="301.53,115.88,310.7285,112.3604,305.0717,112.3506,305.0815,106.6938,301.53,115.88" style="stroke:#181818;stroke-width:1.0;"/></g><!--link app to neon_notifications--><g id="link_app_neon_notifications"><path d="M396.8,33.42 C351.44,35.65 268.26,43.39 203,70.07 C176.17,81.03 154.1372,96.5726 135.2472,112.0826 " fill="none" id="app-to-neon_notifications" style="stroke:#181818;stroke-width:1.0;stroke-dasharray:7.0,7.0;"/><polygon fill="#181818" points="130.61,115.89,140.1041,113.2703,134.4743,112.7171,135.0275,107.0874,130.61,115.89" style="stroke:#181818;stroke-width:1.0;"/></g><!--link neon_files to neon--><g id="link_neon_files_neon"><path d="M543.79,165.6 C531.97,173.74 518.24,182.45 505,189.13 C445.06,219.38 376.208,241.7132 332.208,254.6032 " fill="none" id="neon_files-to-neon" style="stroke:#181818;stroke-width:1.0;"/><polygon fill="#181818" points="326.45,256.29,336.2116,257.5984,331.2483,254.8843,333.9624,249.9211,326.45,256.29" style="stroke:#181818;stroke-width:1.0;"/></g><!--link neon_news to neon--><g id="link_neon_news_neon"><path d="M403.15,165.42 C378.06,187.67 345.2985,216.7284 320.2385,238.9584 " fill="none" id="neon_news-to-neon" style="stroke:#181818;stroke-width:1.0;"/><polygon fill="#181818" points="315.75,242.94,325.1372,239.9599,319.4904,239.622,319.8283,233.9752,315.75,242.94" style="stroke:#181818;stroke-width:1.0;"/></g><!--link neon_notes to neon--><g id="link_neon_notes_neon"><path d="M280.9,165.42 C282.68,187.67 284.8538,214.7289 286.6238,236.9589 " fill="none" id="neon_notes-to-neon" style="stroke:#181818;stroke-width:1.0;"/><polygon fill="#181818" points="287.1,242.94,290.373,233.6509,286.7031,237.9558,282.3983,234.2859,287.1,242.94" style="stroke:#181818;stroke-width:1.0;"/></g><!--link neon_notifications to neon--><g id="link_neon_notifications_neon"><path d="M139.23,165.42 C172.05,187.6 215.7399,217.1387 248.6099,239.3687 " fill="none" id="neon_notifications-to-neon" style="stroke:#181818;stroke-width:1.0;"/><polygon fill="#181818" points="253.58,242.73,248.3657,234.3747,249.4383,239.9289,243.884,241.0015,253.58,242.73" style="stroke:#181818;stroke-width:1.0;"/></g><!--link neon to nextcloud--><g id="link_neon_nextcloud"><path d="M320.19,292.7 C343.09,310.33 369.287,330.5081 392.157,348.1281 " fill="none" id="neon-to-nextcloud" style="stroke:#181818;stroke-width:1.0;"/><polygon fill="#181818" points="396.91,351.79,392.2218,343.1285,392.9492,348.7384,387.3393,349.4658,396.91,351.79" style="stroke:#181818;stroke-width:1.0;"/></g><!--link neon to sort_box--><g id="link_neon_sort_box"><path d="M258.93,292.7 C236.86,310.33 211.7073,330.4244 189.6573,348.0444 " fill="none" id="neon-to-sort_box" style="stroke:#181818;stroke-width:1.0;"/><polygon fill="#181818" points="184.97,351.79,194.498,349.2965,188.8761,348.6687,189.5039,343.0468,184.97,351.79" style="stroke:#181818;stroke-width:1.0;"/></g><!--link neon to file_icons--><g id="link_neon_file_icons"><path d="M289,292.7 C289,310.33 289,328.17 289,345.79 " fill="none" id="neon-to-file_icons" style="stroke:#181818;stroke-width:1.0;"/><polygon fill="#181818" points="289,351.79,293,342.79,289,346.79,285,342.79,289,351.79" style="stroke:#181818;stroke-width:1.0;"/></g><!--link dynamite to nextcloud--><g id="link_dynamite_nextcloud"><path d="M726.08,292.58 C714.18,301.1 700,310.09 686,316.2 C618.7,345.59 540.8672,360.6141 487.3872,368.4141 " fill="none" id="dynamite-to-nextcloud" style="stroke:#181818;stroke-width:1.0;"/><polygon fill="#181818" points="481.45,369.28,490.9331,371.9392,486.3977,368.5584,489.7785,364.023,481.45,369.28" style="stroke:#181818;stroke-width:1.0;"/></g><!--link specifications to nextcloud--><g id="link_specifications_nextcloud"><path d="M563.73,292.7 C534.91,310.33 501.0476,331.0379 472.2576,348.6579 " fill="none" id="specifications-to-nextcloud" style="stroke:#181818;stroke-width:1.0;"/><polygon fill="#181818" points="467.14,351.79,476.9045,350.5036,471.4047,349.1799,472.7284,343.6801,467.14,351.79" style="stroke:#181818;stroke-width:1.0;"/></g><!--SRC=[TP9D3i8W48NtSmhYlXx1nBXoezwWGJfLOiiGmAWntbtQsX-cbGK9tuCtym0hrKrUKAmEI4QKJjRu87TRYJU8E1JLbWoQ84pKP-WPL4NtWd5FBkHdUZ9SwWfphSXu-03Oll2kqb7ronNpGlhhcQGhbiJ6qIy91X_Bd0B-4tIfbGoQjtUqQBQd_RozucLahGFoy1PLQZLgqbg0E8drUiFZ9RWBbg0sKahQC1nDQiFe9RAismA36KUDsvoDTgFM6V_M_HSOqF3w0vayFFItnawdjyR4Bm00]--></g></svg>