<svg xmlns="http://www.w3.org/2000/svg" xmlns:xlink="http://www.w3.org/1999/xlink" contentStyleType="text/css" height="1098px" preserveAspectRatio="none" style="width:414px;height:1098px;background:#FFFFFF;" version="1.1" viewBox="0 0 414 1098" width="414px" zoomAndPan="magnify"><defs/><g><ellipse cx="188.8656" cy="16" fill="#222222" rx="10" ry="10" style="stroke:#222222;stroke-width:1.0;"/><g id="elem_#3"><polygon fill="#F1F1F1" points="188.8656,67,200.8656,79,188.8656,91,176.8656,79,188.8656,67" style="stroke:#181818;stroke-width:0.5;"/></g><rect fill="#F1F1F1" height="36.3441" rx="12.5" ry="12.5" style="stroke:#181818;stroke-width:0.5;" width="144" x="146.8656" y="474.04"/><text fill="#000000" font-family="sans-serif" font-size="12" lengthAdjust="spacing" textLength="124" x="156.8656" y="496.8681">Validate server details</text><g id="elem_#8"><polygon fill="#F1F1F1" points="274.8656,67,286.8656,79,274.8656,91,262.8656,79,274.8656,67" style="stroke:#181818;stroke-width:0.5;"/></g><ellipse cx="338.8656" cy="979.1" fill="none" rx="11" ry="11" style="stroke:#222222;stroke-width:1.0;"/><ellipse cx="338.8656" cy="979.1" fill="#222222" rx="6" ry="6" style="stroke:#222222;stroke-width:1.0;"/><rect fill="#F1F1F1" height="36.3441" rx="12.5" ry="12.5" style="stroke:#181818;stroke-width:0.5;" width="81" x="234.3656" y="147"/><text fill="#000000" font-family="sans-serif" font-size="12" lengthAdjust="spacing" textLength="61" x="244.3656" y="169.8281">Login page</text><g id="elem_#15"><polygon fill="#F1F1F1" points="274.8656,224.35,286.8656,236.35,274.8656,248.35,262.8656,236.35,274.8656,224.35" style="stroke:#181818;stroke-width:0.5;"/></g><rect fill="#F1F1F1" height="36.3441" rx="12.5" ry="12.5" style="stroke:#181818;stroke-width:0.5;" width="137" x="142.3656" y="566.38"/><text fill="#000000" font-family="sans-serif" font-size="12" lengthAdjust="spacing" textLength="117" x="152.3656" y="589.2081">Open login flow page</text><rect fill="#F1F1F1" height="36.3441" rx="12.5" ry="12.5" style="stroke:#181818;stroke-width:0.5;" width="115" x="151.3656" y="643.72"/><text fill="#000000" font-family="sans-serif" font-size="12" lengthAdjust="spacing" textLength="95" x="161.3656" y="666.5481">Initiate login flow</text><rect fill="#F1F1F1" height="36.3441" rx="12.5" ry="12.5" style="stroke:#181818;stroke-width:0.5;" width="125" x="146.3656" y="721.07"/><text fill="#000000" font-family="sans-serif" font-size="12" lengthAdjust="spacing" textLength="105" x="156.3656" y="743.8981">Open web browser</text><rect fill="#F1F1F1" height="36.3441" rx="12.5" ry="12.5" style="stroke:#181818;stroke-width:0.5;" width="155" x="131.3656" y="798.41"/><text fill="#000000" font-family="sans-serif" font-size="12" lengthAdjust="spacing" textLength="135" x="141.3656" y="821.2381">Wait for login flow result</text><rect fill="#F1F1F1" height="36.3441" rx="12.5" ry="12.5" style="stroke:#181818;stroke-width:0.5;" width="135" x="222.3656" y="875.76"/><text fill="#000000" font-family="sans-serif" font-size="12" lengthAdjust="spacing" textLength="115" x="232.3656" y="898.5881">Validate login details</text><rect fill="#F1F1F1" height="36.3441" rx="12.5" ry="12.5" style="stroke:#181818;stroke-width:0.5;" width="129" x="154.3656" y="304.35"/><text fill="#000000" font-family="sans-serif" font-size="12" lengthAdjust="spacing" textLength="109" x="164.3656" y="327.1781">Open QR scan page</text><rect fill="#F1F1F1" height="36.3441" rx="12.5" ry="12.5" style="stroke:#181818;stroke-width:0.5;" width="96" x="170.8656" y="396.69"/><text fill="#000000" font-family="sans-serif" font-size="12" lengthAdjust="spacing" textLength="76" x="180.8656" y="419.5181">Scan QR code</text><!--link start to #3--><g id="link_start_#3"><path d="M188.8656,26.27 C188.8656,37.07 188.8656,48.92 188.8656,60.57 " fill="none" id="start-to-#3" style="stroke:#181818;stroke-width:1.0;"/><polygon fill="#181818" points="188.8656,66.57,192.8656,57.57,188.8656,61.57,184.8656,57.57,188.8656,66.57" style="stroke:#181818;stroke-width:1.0;"/><text fill="#000000" font-family="sans-serif" font-size="11" lengthAdjust="spacing" textLength="163" x="6" y="59.7125">Started from QR code scanner?</text></g><!--link #3 to Validate server details--><g id="link_#3_Validate server details"><path d="M181.8056,84.32 C164.7756,95.34 122.8656,126.29 122.8656,164.18 C122.8656,164.18 122.8656,164.18 122.8656,415.86 C122.8656,442.77 141.144,458.8071 164.954,470.8771 " fill="none" id="#3-to-Validate server details" style="stroke:#FF0000;stroke-width:1.0;"/><polygon fill="#FF0000" points="170.3056,473.59,164.0868,465.9529,165.8459,471.3292,160.4695,473.0884,170.3056,473.59" style="stroke:#FF0000;stroke-width:1.0;"/><text fill="#000000" font-family="sans-serif" font-size="11" lengthAdjust="spacing" textLength="17" x="123.8656" y="281.1089">Yes</text></g><!--link #3 to #8--><g id="link_#3_#8"><path d="M201.5556,79 C217.9056,79 240.1656,79 256.4056,79 " fill="none" id="#3-to-#8" style="stroke:#181818;stroke-width:1.0;"/><polygon fill="#181818" points="262.4056,79,253.4056,75,257.4056,79,253.4056,83,262.4056,79" style="stroke:#181818;stroke-width:1.0;"/><text fill="#000000" font-family="sans-serif" font-size="11" lengthAdjust="spacing" textLength="15" x="224.3656" y="72.7589">No</text><text fill="#000000" font-family="sans-serif" font-size="11" lengthAdjust="spacing" textLength="68" x="187.0688" y="100.5703">Has account?</text></g><!--link #8 to end--><g id="link_#8_end"><path d="M284.1956,82.08 C311.4256,88.74 388.8656,112.27 388.8656,164.18 C388.8656,164.18 388.8656,164.18 388.8656,894.93 C388.8656,919.48 387.0856,927.41 373.8656,948.1 C367.2256,958.49 360.906,963.8989 352.936,969.2189 " fill="none" id="#8-to-end" style="stroke:#181818;stroke-width:1.0;"/><polygon fill="#181818" points="347.9456,972.55,357.6519,970.8803,352.1043,969.7741,353.2105,964.2264,347.9456,972.55" style="stroke:#181818;stroke-width:1.0;"/><text fill="#000000" font-family="sans-serif" font-size="11" lengthAdjust="spacing" textLength="17" x="389.8656" y="543.1389">Yes</text></g><!--link #8 to Login page--><g id="link_#8_Login page"><path d="M274.8656,91.71 C274.8656,105.98 274.8656,124.24 274.8656,140.72 " fill="none" id="#8-to-Login page" style="stroke:#181818;stroke-width:1.0;"/><polygon fill="#181818" points="274.8656,146.72,278.8656,137.72,274.8656,141.72,270.8656,137.72,274.8656,146.72" style="stroke:#181818;stroke-width:1.0;"/><text fill="#000000" font-family="sans-serif" font-size="11" lengthAdjust="spacing" textLength="15" x="275.8656" y="123.7589">No</text></g><!--link Login page to #15--><g id="link_Login page_#15"><path d="M274.8656,183.63 C274.8656,196.28 274.8656,207.01 274.8656,217.97 " fill="none" id="Login page-to-#15" style="stroke:#181818;stroke-width:1.0;"/><polygon fill="#181818" points="274.8656,223.97,278.8656,214.97,274.8656,218.97,270.8656,214.97,274.8656,223.97" style="stroke:#181818;stroke-width:1.0;"/><text fill="#000000" font-family="sans-serif" font-size="11" lengthAdjust="spacing" textLength="122" x="132.6594" y="215.4719">Selected login method?</text></g><!--link #15 to Validate server details--><g id="link_#15_Validate server details"><path d="M280.7656,242.34 C286.8956,247.94 296.0956,257.65 299.8656,268.35 C324.4656,338.04 311.1856,367.58 276.8656,433.04 C268.5156,448.95 258.8985,459.3938 246.6485,469.8538 " fill="none" id="#15-to-Validate server details" style="stroke:#0000FF;stroke-width:1.0;"/><polygon fill="#0000FF" points="242.0856,473.75,251.5274,470.9477,245.888,470.5032,246.3325,464.8638,242.0856,473.75" style="stroke:#0000FF;stroke-width:1.0;"/><text fill="#000000" font-family="sans-serif" font-size="11" lengthAdjust="spacing" textLength="56" x="308.8656" y="373.4489">Login flow</text></g><!--link Validate server details to Open login flow page--><g id="link_Validate server details_Open login flow page"><path d="M217.3256,510.63 C215.9056,526.62 214.3427,544.2232 212.9327,560.2132 " fill="none" id="Validate server details-to-Open login flow page" style="stroke:#0000FF;stroke-width:1.0;"/><polygon fill="#0000FF" points="212.4056,566.19,217.1807,557.5761,212.8448,561.2093,209.2116,556.8734,212.4056,566.19" style="stroke:#0000FF;stroke-width:1.0;"/></g><!--link Open login flow page to Initiate login flow--><g id="link_Open login flow page_Initiate login flow"><path d="M210.4056,603.03 C210.0856,615.11 209.814,625.1321 209.494,637.2521 " fill="none" id="Open login flow page-to-Initiate login flow" style="stroke:#0000FF;stroke-width:1.0;"/><polygon fill="#0000FF" points="209.3356,643.25,213.5718,634.3587,209.4676,638.2517,205.5746,634.1476,209.3356,643.25" style="stroke:#0000FF;stroke-width:1.0;"/></g><!--link Initiate login flow to Open web browser--><g id="link_Initiate login flow_Open web browser"><path d="M208.8656,680.37 C208.8656,692.46 208.8656,702.48 208.8656,714.6 " fill="none" id="Initiate login flow-to-Open web browser" style="stroke:#0000FF;stroke-width:1.0;"/><polygon fill="#0000FF" points="208.8656,720.6,212.8656,711.6,208.8656,715.6,204.8656,711.6,208.8656,720.6" style="stroke:#0000FF;stroke-width:1.0;"/></g><!--link Open web browser to Wait for login flow result--><g id="link_Open web browser_Wait for login flow result"><path d="M208.8656,757.71 C208.8656,769.8 208.8656,779.82 208.8656,791.94 " fill="none" id="Open web browser-to-Wait for login flow result" style="stroke:#0000FF;stroke-width:1.0;"/><polygon fill="#0000FF" points="208.8656,797.94,212.8656,788.94,208.8656,792.94,204.8656,788.94,208.8656,797.94" style="stroke:#0000FF;stroke-width:1.0;"/></g><!--link Wait for login flow result to Validate login details--><g id="link_Wait for login flow result_Validate login details"><path d="M227.6556,835.06 C240.6456,847.14 253.4723,859.0835 266.5023,871.2035 " fill="none" id="Wait for login flow result-to-Validate login details" style="stroke:#0000FF;stroke-width:1.0;"/><polygon fill="#0000FF" points="270.8956,875.29,267.03,866.2315,267.2346,871.8846,261.5814,872.0892,270.8956,875.29" style="stroke:#0000FF;stroke-width:1.0;"/></g><!--link #15 to Open QR scan page--><g id="link_#15_Open QR scan page"><path d="M270.0556,243.93 C265.5256,250.17 258.6156,259.81 252.8656,268.35 C244.9056,280.16 239.4626,288.6127 232.8826,299.0627 " fill="none" id="#15-to-Open QR scan page" style="stroke:#FF0000;stroke-width:1.0;"/><polygon fill="#FF0000" points="229.6856,304.14,237.866,298.6554,232.3498,299.9089,231.0963,294.3927,229.6856,304.14" style="stroke:#FF0000;stroke-width:1.0;"/><text fill="#000000" font-family="sans-serif" font-size="11" lengthAdjust="spacing" textLength="44" x="253.8656" y="281.1089">QR code</text></g><!--link Open QR scan page to Scan QR code--><g id="link_Open QR scan page_Scan QR code"><path d="M218.8656,340.94 C218.8656,356.94 218.8656,374.52 218.8656,390.5 " fill="none" id="Open QR scan page-to-Scan QR code" style="stroke:#FF0000;stroke-width:1.0;"/><polygon fill="#FF0000" points="218.8656,396.5,222.8656,387.5,218.8656,391.5,214.8656,387.5,218.8656,396.5" style="stroke:#FF0000;stroke-width:1.0;"/></g><!--link Scan QR code to Validate server details--><g id="link_Scan QR code_Validate server details"><path d="M218.8656,433.34 C218.8656,445.42 218.8656,455.45 218.8656,467.57 " fill="none" id="Scan QR code-to-Validate server details" style="stroke:#FF0000;stroke-width:1.0;"/><polygon fill="#FF0000" points="218.8656,473.57,222.8656,464.57,218.8656,468.57,214.8656,464.57,218.8656,473.57" style="stroke:#FF0000;stroke-width:1.0;"/></g><!--link Validate server details to Validate login details--><g id="link_Validate server details_Validate login details"><path d="M259.4156,510.87 C286.7556,525.82 317.8656,550.16 317.8656,583.55 C317.8656,583.55 317.8656,583.55 317.8656,817.58 C317.8656,838.38 311.1992,855.1959 303.2792,870.0459 " fill="none" id="Validate server details-to-Validate login details" style="stroke:#FF0000;stroke-width:1.0;"/><polygon fill="#FF0000" points="300.4556,875.34,308.2203,869.2812,302.8086,870.9282,301.1615,865.5165,300.4556,875.34" style="stroke:#FF0000;stroke-width:1.0;"/></g><!--link Validate login details to end--><g id="link_Validate login details_end"><path d="M290.0256,912.34 C290.8456,923.31 293.2856,937.37 299.8656,948.1 C306.9256,959.6 314.8711,965.4334 323.9411,970.4334 " fill="none" id="Validate login details-to-end" style="stroke:#181818;stroke-width:1.0;"/><polygon fill="#181818" points="329.1956,973.33,323.245,965.4821,324.8169,970.9161,319.3828,972.488,329.1956,973.33" style="stroke:#181818;stroke-width:1.0;"/><text fill="#000000" font-family="sans-serif" font-size="11" lengthAdjust="spacing" textLength="71" x="300.8656" y="944.8589">Login success</text></g><rect fill="#DDDDDD" height="71.2038" id="_legend" rx="7.5" ry="7.5" style="stroke:#000000;stroke-width:1.0;" width="154" x="12" y="1007.1"/><text fill="#000000" font-family="sans-serif" font-size="14" lengthAdjust="spacing" textLength="35" x="17" y="1029.0659">Color</text><text fill="#000000" font-family="sans-serif" font-size="14" lengthAdjust="spacing" textLength="93" x="64" y="1029.0659">Login method</text><rect fill="#FF0000" height="19.0679" style="stroke:none;stroke-width:1.0;" width="43" x="17" y="1033.1679"/><text fill="#000000" font-family="sans-serif" font-size="14" lengthAdjust="spacing" textLength="4" x="17" y="1048.1339">&#160;</text><text fill="#000000" font-family="sans-serif" font-size="14" lengthAdjust="spacing" textLength="58" x="64" y="1048.1339">QR Code</text><rect fill="#0000FF" height="19.0679" style="stroke:none;stroke-width:1.0;" width="43" x="17" y="1052.2358"/><text fill="#000000" font-family="sans-serif" font-size="14" lengthAdjust="spacing" textLength="4" x="17" y="1067.2018">&#160;</text><text fill="#000000" font-family="sans-serif" font-size="14" lengthAdjust="spacing" textLength="69" x="64" y="1067.2018">Login flow</text><line style="stroke:#000000;stroke-width:1.0;" x1="17" x2="161" y1="1014.1" y2="1014.1"/><line style="stroke:#000000;stroke-width:1.0;" x1="17" x2="161" y1="1033.1679" y2="1033.1679"/><line style="stroke:#000000;stroke-width:1.0;" x1="17" x2="161" y1="1052.2358" y2="1052.2358"/><line style="stroke:#000000;stroke-width:1.0;" x1="17" x2="161" y1="1071.3038" y2="1071.3038"/><line style="stroke:#000000;stroke-width:1.0;" x1="17" x2="17" y1="1014.1" y2="1071.3038"/><line style="stroke:#000000;stroke-width:1.0;" x1="60" x2="60" y1="1014.1" y2="1071.3038"/><line style="stroke:#000000;stroke-width:1.0;" x1="161" x2="161" y1="1014.1" y2="1071.3038"/><!--SRC=[XLBBQiCm4BphAnRraWJy1yKzvD92I6aBBINue4XhHw18GPBhYp- -UjYkK_UXWy6QsTcT7QqsQv0rq1VFh4S1jJLdU7e6RWI2uqnhj7SK_0arAGut5aLLb8TtT1NGLwQaO3xmq7wW1O6UIUKeGUMGG3Y1kZTLQd3F733EJQlzg0V3AKR5rMQTBgVw4OqYT6SQgU726gIPfOMiIVwIv04LycX29UOP_Sc8URDWuAXQZ0woMArCzvUHwoAWZnVKWteidGqpPprewMMK-sB-8jNX4OxMTA7lal76f8VQs7b3YwvLVicT76Jk3qbCsGtXLiC8uJV6V6qbKyD68p8KBC3_jhRWVPyj9rTCQRYMStJ3Eo14OHCeeB3sIRBV6XMs0JtiPlb2dy7RsAyCO1Xt6nzlEXCODrMEbMcL4GpwkGlv1000]--></g></svg>